<mxfile host="Electron" modified="2024-01-13T07:34:35.605Z" agent="Mozilla/5.0 (Windows NT 10.0; Win64; x64) AppleWebKit/537.36 (KHTML, like Gecko) draw.io/22.1.2 Chrome/114.0.5735.289 Electron/25.9.4 Safari/537.36" etag="fa8wUCxWuqy9HBCKXVzo" version="22.1.2" type="device">
  <diagram id="R2lEEEUBdFMjLlhIrx00" name="Page-1">
    <mxGraphModel dx="2555" dy="5470" grid="1" gridSize="10" guides="1" tooltips="1" connect="1" arrows="1" fold="1" page="1" pageScale="1" pageWidth="850" pageHeight="1100" math="0" shadow="0" extFonts="Permanent Marker^https://fonts.googleapis.com/css?family=Permanent+Marker">
      <root>
        <mxCell id="0" />
        <mxCell id="1" parent="0" />
        <mxCell id="ITAxaeXI1BbHKEIixUYD-46" value="" style="rounded=0;whiteSpace=wrap;html=1;" vertex="1" parent="1">
          <mxGeometry x="330" y="-1340" width="270" height="150" as="geometry" />
        </mxCell>
        <mxCell id="VAx4gwtXxQH16esh_LAT-21" value="BRN" style="shape=table;startSize=30;container=1;collapsible=1;childLayout=tableLayout;fixedRows=1;rowLines=0;fontStyle=1;align=center;resizeLast=1;rounded=0;" parent="1" vertex="1">
          <mxGeometry x="880" y="-920" width="250" height="240" as="geometry" />
        </mxCell>
        <mxCell id="VAx4gwtXxQH16esh_LAT-22" value="" style="shape=partialRectangle;collapsible=0;dropTarget=0;pointerEvents=0;fillColor=none;points=[[0,0.5],[1,0.5]];portConstraint=eastwest;top=0;left=0;right=0;bottom=1;" parent="VAx4gwtXxQH16esh_LAT-21" vertex="1">
          <mxGeometry y="30" width="250" height="30" as="geometry" />
        </mxCell>
        <mxCell id="VAx4gwtXxQH16esh_LAT-23" value="PK" style="shape=partialRectangle;overflow=hidden;connectable=0;fillColor=none;top=0;left=0;bottom=0;right=0;fontStyle=1;" parent="VAx4gwtXxQH16esh_LAT-22" vertex="1">
          <mxGeometry width="30" height="30" as="geometry">
            <mxRectangle width="30" height="30" as="alternateBounds" />
          </mxGeometry>
        </mxCell>
        <mxCell id="VAx4gwtXxQH16esh_LAT-24" value="BRN ID" style="shape=partialRectangle;overflow=hidden;connectable=0;fillColor=none;top=0;left=0;bottom=0;right=0;align=left;spacingLeft=6;fontStyle=5;" parent="VAx4gwtXxQH16esh_LAT-22" vertex="1">
          <mxGeometry x="30" width="220" height="30" as="geometry">
            <mxRectangle width="220" height="30" as="alternateBounds" />
          </mxGeometry>
        </mxCell>
        <mxCell id="VAx4gwtXxQH16esh_LAT-25" value="" style="shape=partialRectangle;collapsible=0;dropTarget=0;pointerEvents=0;fillColor=none;points=[[0,0.5],[1,0.5]];portConstraint=eastwest;top=0;left=0;right=0;bottom=0;" parent="VAx4gwtXxQH16esh_LAT-21" vertex="1">
          <mxGeometry y="60" width="250" height="30" as="geometry" />
        </mxCell>
        <mxCell id="VAx4gwtXxQH16esh_LAT-26" value="FK1" style="shape=partialRectangle;overflow=hidden;connectable=0;fillColor=none;top=0;left=0;bottom=0;right=0;" parent="VAx4gwtXxQH16esh_LAT-25" vertex="1">
          <mxGeometry width="30" height="30" as="geometry">
            <mxRectangle width="30" height="30" as="alternateBounds" />
          </mxGeometry>
        </mxCell>
        <mxCell id="VAx4gwtXxQH16esh_LAT-27" value="Employee ID" style="shape=partialRectangle;overflow=hidden;connectable=0;fillColor=none;top=0;left=0;bottom=0;right=0;align=left;spacingLeft=6;" parent="VAx4gwtXxQH16esh_LAT-25" vertex="1">
          <mxGeometry x="30" width="220" height="30" as="geometry">
            <mxRectangle width="220" height="30" as="alternateBounds" />
          </mxGeometry>
        </mxCell>
        <mxCell id="VAx4gwtXxQH16esh_LAT-133" value="" style="shape=partialRectangle;collapsible=0;dropTarget=0;pointerEvents=0;fillColor=none;points=[[0,0.5],[1,0.5]];portConstraint=eastwest;top=0;left=0;right=0;bottom=0;" parent="VAx4gwtXxQH16esh_LAT-21" vertex="1">
          <mxGeometry y="90" width="250" height="30" as="geometry" />
        </mxCell>
        <mxCell id="VAx4gwtXxQH16esh_LAT-134" value="" style="shape=partialRectangle;overflow=hidden;connectable=0;fillColor=none;top=0;left=0;bottom=0;right=0;" parent="VAx4gwtXxQH16esh_LAT-133" vertex="1">
          <mxGeometry width="30" height="30" as="geometry">
            <mxRectangle width="30" height="30" as="alternateBounds" />
          </mxGeometry>
        </mxCell>
        <mxCell id="VAx4gwtXxQH16esh_LAT-135" value="Booking Date" style="shape=partialRectangle;overflow=hidden;connectable=0;fillColor=none;top=0;left=0;bottom=0;right=0;align=left;spacingLeft=6;" parent="VAx4gwtXxQH16esh_LAT-133" vertex="1">
          <mxGeometry x="30" width="220" height="30" as="geometry">
            <mxRectangle width="220" height="30" as="alternateBounds" />
          </mxGeometry>
        </mxCell>
        <mxCell id="VAx4gwtXxQH16esh_LAT-136" value="" style="shape=partialRectangle;collapsible=0;dropTarget=0;pointerEvents=0;fillColor=none;points=[[0,0.5],[1,0.5]];portConstraint=eastwest;top=0;left=0;right=0;bottom=0;" parent="VAx4gwtXxQH16esh_LAT-21" vertex="1">
          <mxGeometry y="120" width="250" height="30" as="geometry" />
        </mxCell>
        <mxCell id="VAx4gwtXxQH16esh_LAT-137" value="" style="shape=partialRectangle;overflow=hidden;connectable=0;fillColor=none;top=0;left=0;bottom=0;right=0;" parent="VAx4gwtXxQH16esh_LAT-136" vertex="1">
          <mxGeometry width="30" height="30" as="geometry">
            <mxRectangle width="30" height="30" as="alternateBounds" />
          </mxGeometry>
        </mxCell>
        <mxCell id="VAx4gwtXxQH16esh_LAT-138" value="Check-in Date" style="shape=partialRectangle;overflow=hidden;connectable=0;fillColor=none;top=0;left=0;bottom=0;right=0;align=left;spacingLeft=6;" parent="VAx4gwtXxQH16esh_LAT-136" vertex="1">
          <mxGeometry x="30" width="220" height="30" as="geometry">
            <mxRectangle width="220" height="30" as="alternateBounds" />
          </mxGeometry>
        </mxCell>
        <mxCell id="VAx4gwtXxQH16esh_LAT-139" value="" style="shape=partialRectangle;collapsible=0;dropTarget=0;pointerEvents=0;fillColor=none;points=[[0,0.5],[1,0.5]];portConstraint=eastwest;top=0;left=0;right=0;bottom=0;" parent="VAx4gwtXxQH16esh_LAT-21" vertex="1">
          <mxGeometry y="150" width="250" height="30" as="geometry" />
        </mxCell>
        <mxCell id="VAx4gwtXxQH16esh_LAT-140" value="" style="shape=partialRectangle;overflow=hidden;connectable=0;fillColor=none;top=0;left=0;bottom=0;right=0;" parent="VAx4gwtXxQH16esh_LAT-139" vertex="1">
          <mxGeometry width="30" height="30" as="geometry">
            <mxRectangle width="30" height="30" as="alternateBounds" />
          </mxGeometry>
        </mxCell>
        <mxCell id="VAx4gwtXxQH16esh_LAT-141" value="Check-out Date" style="shape=partialRectangle;overflow=hidden;connectable=0;fillColor=none;top=0;left=0;bottom=0;right=0;align=left;spacingLeft=6;" parent="VAx4gwtXxQH16esh_LAT-139" vertex="1">
          <mxGeometry x="30" width="220" height="30" as="geometry">
            <mxRectangle width="220" height="30" as="alternateBounds" />
          </mxGeometry>
        </mxCell>
        <mxCell id="agrQYRMtIA3MOH0goCUR-67" value="" style="shape=partialRectangle;collapsible=0;dropTarget=0;pointerEvents=0;fillColor=none;points=[[0,0.5],[1,0.5]];portConstraint=eastwest;top=0;left=0;right=0;bottom=0;" parent="VAx4gwtXxQH16esh_LAT-21" vertex="1">
          <mxGeometry y="180" width="250" height="30" as="geometry" />
        </mxCell>
        <mxCell id="agrQYRMtIA3MOH0goCUR-68" value="" style="shape=partialRectangle;overflow=hidden;connectable=0;fillColor=none;top=0;left=0;bottom=0;right=0;" parent="agrQYRMtIA3MOH0goCUR-67" vertex="1">
          <mxGeometry width="30" height="30" as="geometry">
            <mxRectangle width="30" height="30" as="alternateBounds" />
          </mxGeometry>
        </mxCell>
        <mxCell id="agrQYRMtIA3MOH0goCUR-69" value="Status" style="shape=partialRectangle;overflow=hidden;connectable=0;fillColor=none;top=0;left=0;bottom=0;right=0;align=left;spacingLeft=6;" parent="agrQYRMtIA3MOH0goCUR-67" vertex="1">
          <mxGeometry x="30" width="220" height="30" as="geometry">
            <mxRectangle width="220" height="30" as="alternateBounds" />
          </mxGeometry>
        </mxCell>
        <mxCell id="VAx4gwtXxQH16esh_LAT-148" value="" style="shape=partialRectangle;collapsible=0;dropTarget=0;pointerEvents=0;fillColor=none;points=[[0,0.5],[1,0.5]];portConstraint=eastwest;top=0;left=0;right=0;bottom=0;" parent="VAx4gwtXxQH16esh_LAT-21" vertex="1">
          <mxGeometry y="210" width="250" height="30" as="geometry" />
        </mxCell>
        <mxCell id="VAx4gwtXxQH16esh_LAT-149" value="" style="shape=partialRectangle;overflow=hidden;connectable=0;fillColor=none;top=0;left=0;bottom=0;right=0;" parent="VAx4gwtXxQH16esh_LAT-148" vertex="1">
          <mxGeometry width="30" height="30" as="geometry">
            <mxRectangle width="30" height="30" as="alternateBounds" />
          </mxGeometry>
        </mxCell>
        <mxCell id="VAx4gwtXxQH16esh_LAT-150" value="Total Cost" style="shape=partialRectangle;overflow=hidden;connectable=0;fillColor=none;top=0;left=0;bottom=0;right=0;align=left;spacingLeft=6;" parent="VAx4gwtXxQH16esh_LAT-148" vertex="1">
          <mxGeometry x="30" width="220" height="30" as="geometry">
            <mxRectangle width="220" height="30" as="alternateBounds" />
          </mxGeometry>
        </mxCell>
        <mxCell id="VAx4gwtXxQH16esh_LAT-31" style="edgeStyle=none;rounded=0;orthogonalLoop=1;jettySize=auto;html=1;endArrow=none;endFill=0;strokeWidth=3;shape=link;" parent="1" source="8i_SSMUq7YO5LN_3SJa--27" edge="1">
          <mxGeometry relative="1" as="geometry">
            <mxPoint x="25" y="-1010" as="targetPoint" />
            <mxPoint x="25" y="-1110" as="sourcePoint" />
          </mxGeometry>
        </mxCell>
        <mxCell id="VAx4gwtXxQH16esh_LAT-42" style="edgeStyle=none;rounded=0;orthogonalLoop=1;jettySize=auto;html=1;endArrow=none;endFill=0;entryX=0.5;entryY=0;entryDx=0;entryDy=0;exitX=0.5;exitY=1;exitDx=0;exitDy=0;strokeWidth=3;endSize=15;startSize=15;" parent="1" source="VAx4gwtXxQH16esh_LAT-43" target="VAx4gwtXxQH16esh_LAT-44" edge="1">
          <mxGeometry relative="1" as="geometry">
            <mxPoint x="295" y="-940" as="targetPoint" />
            <mxPoint x="25" y="-970" as="sourcePoint" />
          </mxGeometry>
        </mxCell>
        <mxCell id="VAx4gwtXxQH16esh_LAT-183" value="&lt;font style=&quot;font-size: 20px;&quot;&gt;Type = &quot;FD&quot;&lt;/font&gt;" style="edgeLabel;html=1;align=center;verticalAlign=middle;resizable=0;points=[];" parent="VAx4gwtXxQH16esh_LAT-42" vertex="1" connectable="0">
          <mxGeometry x="0.1064" y="4" relative="1" as="geometry">
            <mxPoint as="offset" />
          </mxGeometry>
        </mxCell>
        <mxCell id="4OLoFxbU8ZjZ9kezu3H6-7" style="edgeStyle=orthogonalEdgeStyle;rounded=0;orthogonalLoop=1;jettySize=auto;html=1;exitX=0;exitY=0.5;exitDx=0;exitDy=0;entryX=0.5;entryY=0;entryDx=0;entryDy=0;strokeWidth=3;endArrow=ERzeroToMany;endFill=0;endSize=15;startSize=15;startArrow=ERmandOne;startFill=0;" parent="1" source="8i_SSMUq7YO5LN_3SJa--18" target="8i_SSMUq7YO5LN_3SJa--5" edge="1">
          <mxGeometry relative="1" as="geometry">
            <Array as="points">
              <mxPoint x="-180" y="-1255" />
              <mxPoint x="-180" y="-1500" />
              <mxPoint x="25" y="-1500" />
              <mxPoint x="25" y="-1440" />
            </Array>
          </mxGeometry>
        </mxCell>
        <mxCell id="4OLoFxbU8ZjZ9kezu3H6-8" value="&lt;font style=&quot;font-size: 20px;&quot;&gt;Supervises&lt;/font&gt;" style="edgeLabel;html=1;align=center;verticalAlign=middle;resizable=0;points=[];" parent="4OLoFxbU8ZjZ9kezu3H6-7" vertex="1" connectable="0">
          <mxGeometry x="-0.3043" y="-2" relative="1" as="geometry">
            <mxPoint as="offset" />
          </mxGeometry>
        </mxCell>
        <mxCell id="VAx4gwtXxQH16esh_LAT-177" style="edgeStyle=none;rounded=0;orthogonalLoop=1;jettySize=auto;html=1;exitX=0.5;exitY=1;exitDx=0;exitDy=0;entryX=0.5;entryY=0;entryDx=0;entryDy=0;endArrow=none;endFill=0;startSize=15;endSize=15;strokeWidth=3;" parent="1" source="VAx4gwtXxQH16esh_LAT-43" target="VAx4gwtXxQH16esh_LAT-164" edge="1">
          <mxGeometry relative="1" as="geometry" />
        </mxCell>
        <mxCell id="uh7N6v9tgr0O2weLScP7-2" value="&lt;font style=&quot;font-size: 20px;&quot;&gt;Type = &quot;C&quot;&lt;/font&gt;" style="edgeLabel;html=1;align=center;verticalAlign=middle;resizable=0;points=[];" parent="VAx4gwtXxQH16esh_LAT-177" vertex="1" connectable="0">
          <mxGeometry x="0.2328" relative="1" as="geometry">
            <mxPoint as="offset" />
          </mxGeometry>
        </mxCell>
        <mxCell id="VAx4gwtXxQH16esh_LAT-178" style="edgeStyle=none;rounded=0;orthogonalLoop=1;jettySize=auto;html=1;exitX=0.5;exitY=1;exitDx=0;exitDy=0;entryX=0.5;entryY=0;entryDx=0;entryDy=0;endArrow=none;endFill=0;endSize=15;startSize=15;strokeWidth=3;" parent="1" source="VAx4gwtXxQH16esh_LAT-43" target="VAx4gwtXxQH16esh_LAT-154" edge="1">
          <mxGeometry relative="1" as="geometry" />
        </mxCell>
        <mxCell id="VAx4gwtXxQH16esh_LAT-200" value="&lt;font style=&quot;font-size: 20px;&quot;&gt;Type = &quot;H&quot;&lt;/font&gt;" style="edgeLabel;html=1;align=center;verticalAlign=middle;resizable=0;points=[];" parent="VAx4gwtXxQH16esh_LAT-178" vertex="1" connectable="0">
          <mxGeometry x="0.1769" relative="1" as="geometry">
            <mxPoint as="offset" />
          </mxGeometry>
        </mxCell>
        <mxCell id="VAx4gwtXxQH16esh_LAT-179" style="edgeStyle=none;rounded=0;orthogonalLoop=1;jettySize=auto;html=1;exitX=0.5;exitY=1;exitDx=0;exitDy=0;entryX=0.5;entryY=0;entryDx=0;entryDy=0;endArrow=none;endFill=0;strokeWidth=3;endSize=15;startSize=15;" parent="1" source="VAx4gwtXxQH16esh_LAT-43" target="VAx4gwtXxQH16esh_LAT-168" edge="1">
          <mxGeometry relative="1" as="geometry" />
        </mxCell>
        <mxCell id="uh7N6v9tgr0O2weLScP7-1" value="&lt;font style=&quot;font-size: 20px;&quot;&gt;Type = &quot;K&quot;&lt;/font&gt;" style="edgeLabel;html=1;align=center;verticalAlign=middle;resizable=0;points=[];" parent="VAx4gwtXxQH16esh_LAT-179" vertex="1" connectable="0">
          <mxGeometry x="0.1215" y="-1" relative="1" as="geometry">
            <mxPoint as="offset" />
          </mxGeometry>
        </mxCell>
        <mxCell id="VAx4gwtXxQH16esh_LAT-43" value="" style="ellipse;whiteSpace=wrap;html=1;aspect=fixed;" parent="1" vertex="1">
          <mxGeometry x="5" y="-1010" width="40" height="40" as="geometry" />
        </mxCell>
        <mxCell id="VAx4gwtXxQH16esh_LAT-44" value="FRONT DESK" style="shape=table;startSize=30;container=1;collapsible=1;childLayout=tableLayout;fixedRows=1;rowLines=0;fontStyle=1;align=center;resizeLast=1;" parent="1" vertex="1">
          <mxGeometry x="210" y="-850" width="250" height="60" as="geometry" />
        </mxCell>
        <mxCell id="VAx4gwtXxQH16esh_LAT-51" value="" style="shape=partialRectangle;collapsible=0;dropTarget=0;pointerEvents=0;fillColor=none;points=[[0,0.5],[1,0.5]];portConstraint=eastwest;top=0;left=0;right=0;bottom=0;" parent="VAx4gwtXxQH16esh_LAT-44" vertex="1">
          <mxGeometry y="30" width="250" height="30" as="geometry" />
        </mxCell>
        <mxCell id="VAx4gwtXxQH16esh_LAT-52" value="" style="shape=partialRectangle;overflow=hidden;connectable=0;fillColor=none;top=0;left=0;bottom=0;right=0;" parent="VAx4gwtXxQH16esh_LAT-51" vertex="1">
          <mxGeometry width="30" height="30" as="geometry">
            <mxRectangle width="30" height="30" as="alternateBounds" />
          </mxGeometry>
        </mxCell>
        <mxCell id="VAx4gwtXxQH16esh_LAT-53" value="" style="shape=partialRectangle;overflow=hidden;connectable=0;fillColor=none;top=0;left=0;bottom=0;right=0;align=left;spacingLeft=6;" parent="VAx4gwtXxQH16esh_LAT-51" vertex="1">
          <mxGeometry x="30" width="220" height="30" as="geometry">
            <mxRectangle width="220" height="30" as="alternateBounds" />
          </mxGeometry>
        </mxCell>
        <mxCell id="VAx4gwtXxQH16esh_LAT-54" value="GUEST" style="shape=table;startSize=30;container=1;collapsible=1;childLayout=tableLayout;fixedRows=1;rowLines=0;fontStyle=1;align=center;resizeLast=1;" parent="1" vertex="1">
          <mxGeometry x="880" y="-1410" width="249" height="320.00000000000045" as="geometry" />
        </mxCell>
        <mxCell id="VAx4gwtXxQH16esh_LAT-55" value="" style="shape=partialRectangle;collapsible=0;dropTarget=0;pointerEvents=0;fillColor=none;points=[[0,0.5],[1,0.5]];portConstraint=eastwest;top=0;left=0;right=0;bottom=1;" parent="VAx4gwtXxQH16esh_LAT-54" vertex="1">
          <mxGeometry y="30" width="249" height="30" as="geometry" />
        </mxCell>
        <mxCell id="VAx4gwtXxQH16esh_LAT-56" value="PK" style="shape=partialRectangle;overflow=hidden;connectable=0;fillColor=none;top=0;left=0;bottom=0;right=0;fontStyle=1;" parent="VAx4gwtXxQH16esh_LAT-55" vertex="1">
          <mxGeometry width="30" height="30" as="geometry">
            <mxRectangle width="30" height="30" as="alternateBounds" />
          </mxGeometry>
        </mxCell>
        <mxCell id="VAx4gwtXxQH16esh_LAT-57" value="Guest ID" style="shape=partialRectangle;overflow=hidden;connectable=0;fillColor=none;top=0;left=0;bottom=0;right=0;align=left;spacingLeft=6;fontStyle=5;" parent="VAx4gwtXxQH16esh_LAT-55" vertex="1">
          <mxGeometry x="30" width="219" height="30" as="geometry">
            <mxRectangle width="219" height="30" as="alternateBounds" />
          </mxGeometry>
        </mxCell>
        <mxCell id="ITAxaeXI1BbHKEIixUYD-50" style="shape=partialRectangle;collapsible=0;dropTarget=0;pointerEvents=0;fillColor=none;points=[[0,0.5],[1,0.5]];portConstraint=eastwest;top=0;left=0;right=0;bottom=0;" vertex="1" parent="VAx4gwtXxQH16esh_LAT-54">
          <mxGeometry y="60" width="249" height="30" as="geometry" />
        </mxCell>
        <mxCell id="ITAxaeXI1BbHKEIixUYD-51" value="FK1" style="shape=partialRectangle;overflow=hidden;connectable=0;fillColor=none;top=0;left=0;bottom=0;right=0;" vertex="1" parent="ITAxaeXI1BbHKEIixUYD-50">
          <mxGeometry width="30" height="30" as="geometry">
            <mxRectangle width="30" height="30" as="alternateBounds" />
          </mxGeometry>
        </mxCell>
        <mxCell id="ITAxaeXI1BbHKEIixUYD-52" value="BRN ID" style="shape=partialRectangle;overflow=hidden;connectable=0;fillColor=none;top=0;left=0;bottom=0;right=0;align=left;spacingLeft=6;" vertex="1" parent="ITAxaeXI1BbHKEIixUYD-50">
          <mxGeometry x="30" width="219" height="30" as="geometry">
            <mxRectangle width="219" height="30" as="alternateBounds" />
          </mxGeometry>
        </mxCell>
        <mxCell id="VAx4gwtXxQH16esh_LAT-58" value="" style="shape=partialRectangle;collapsible=0;dropTarget=0;pointerEvents=0;fillColor=none;points=[[0,0.5],[1,0.5]];portConstraint=eastwest;top=0;left=0;right=0;bottom=0;" parent="VAx4gwtXxQH16esh_LAT-54" vertex="1">
          <mxGeometry y="90" width="249" height="50" as="geometry" />
        </mxCell>
        <mxCell id="VAx4gwtXxQH16esh_LAT-59" value="" style="shape=partialRectangle;overflow=hidden;connectable=0;fillColor=none;top=0;left=0;bottom=0;right=0;" parent="VAx4gwtXxQH16esh_LAT-58" vertex="1">
          <mxGeometry width="30" height="50" as="geometry">
            <mxRectangle width="30" height="50" as="alternateBounds" />
          </mxGeometry>
        </mxCell>
        <mxCell id="VAx4gwtXxQH16esh_LAT-60" value="Guest Name (First Name, Middle&#xa;Name, Last Name)" style="shape=partialRectangle;overflow=hidden;connectable=0;fillColor=none;top=0;left=0;bottom=0;right=0;align=left;spacingLeft=6;" parent="VAx4gwtXxQH16esh_LAT-58" vertex="1">
          <mxGeometry x="30" width="219" height="50" as="geometry">
            <mxRectangle width="219" height="50" as="alternateBounds" />
          </mxGeometry>
        </mxCell>
        <mxCell id="VAx4gwtXxQH16esh_LAT-61" value="" style="shape=partialRectangle;collapsible=0;dropTarget=0;pointerEvents=0;fillColor=none;points=[[0,0.5],[1,0.5]];portConstraint=eastwest;top=0;left=0;right=0;bottom=0;" parent="VAx4gwtXxQH16esh_LAT-54" vertex="1">
          <mxGeometry y="140" width="249" height="30" as="geometry" />
        </mxCell>
        <mxCell id="VAx4gwtXxQH16esh_LAT-62" value="" style="shape=partialRectangle;overflow=hidden;connectable=0;fillColor=none;top=0;left=0;bottom=0;right=0;" parent="VAx4gwtXxQH16esh_LAT-61" vertex="1">
          <mxGeometry width="30" height="30" as="geometry">
            <mxRectangle width="30" height="30" as="alternateBounds" />
          </mxGeometry>
        </mxCell>
        <mxCell id="VAx4gwtXxQH16esh_LAT-63" value="Birthday" style="shape=partialRectangle;overflow=hidden;connectable=0;fillColor=none;top=0;left=0;bottom=0;right=0;align=left;spacingLeft=6;" parent="VAx4gwtXxQH16esh_LAT-61" vertex="1">
          <mxGeometry x="30" width="219" height="30" as="geometry">
            <mxRectangle width="219" height="30" as="alternateBounds" />
          </mxGeometry>
        </mxCell>
        <mxCell id="VAx4gwtXxQH16esh_LAT-118" value="" style="shape=partialRectangle;collapsible=0;dropTarget=0;pointerEvents=0;fillColor=none;points=[[0,0.5],[1,0.5]];portConstraint=eastwest;top=0;left=0;right=0;bottom=0;" parent="VAx4gwtXxQH16esh_LAT-54" vertex="1">
          <mxGeometry y="170" width="249" height="30" as="geometry" />
        </mxCell>
        <mxCell id="VAx4gwtXxQH16esh_LAT-119" value="" style="shape=partialRectangle;overflow=hidden;connectable=0;fillColor=none;top=0;left=0;bottom=0;right=0;" parent="VAx4gwtXxQH16esh_LAT-118" vertex="1">
          <mxGeometry width="30" height="30" as="geometry">
            <mxRectangle width="30" height="30" as="alternateBounds" />
          </mxGeometry>
        </mxCell>
        <mxCell id="VAx4gwtXxQH16esh_LAT-120" value="Address" style="shape=partialRectangle;overflow=hidden;connectable=0;fillColor=none;top=0;left=0;bottom=0;right=0;align=left;spacingLeft=6;" parent="VAx4gwtXxQH16esh_LAT-118" vertex="1">
          <mxGeometry x="30" width="219" height="30" as="geometry">
            <mxRectangle width="219" height="30" as="alternateBounds" />
          </mxGeometry>
        </mxCell>
        <mxCell id="VAx4gwtXxQH16esh_LAT-121" value="" style="shape=partialRectangle;collapsible=0;dropTarget=0;pointerEvents=0;fillColor=none;points=[[0,0.5],[1,0.5]];portConstraint=eastwest;top=0;left=0;right=0;bottom=0;" parent="VAx4gwtXxQH16esh_LAT-54" vertex="1">
          <mxGeometry y="200" width="249" height="30" as="geometry" />
        </mxCell>
        <mxCell id="VAx4gwtXxQH16esh_LAT-122" value="" style="shape=partialRectangle;overflow=hidden;connectable=0;fillColor=none;top=0;left=0;bottom=0;right=0;" parent="VAx4gwtXxQH16esh_LAT-121" vertex="1">
          <mxGeometry width="30" height="30" as="geometry">
            <mxRectangle width="30" height="30" as="alternateBounds" />
          </mxGeometry>
        </mxCell>
        <mxCell id="VAx4gwtXxQH16esh_LAT-123" value="Contact Number " style="shape=partialRectangle;overflow=hidden;connectable=0;fillColor=none;top=0;left=0;bottom=0;right=0;align=left;spacingLeft=6;" parent="VAx4gwtXxQH16esh_LAT-121" vertex="1">
          <mxGeometry x="30" width="219" height="30" as="geometry">
            <mxRectangle width="219" height="30" as="alternateBounds" />
          </mxGeometry>
        </mxCell>
        <mxCell id="VAx4gwtXxQH16esh_LAT-124" value="" style="shape=partialRectangle;collapsible=0;dropTarget=0;pointerEvents=0;fillColor=none;points=[[0,0.5],[1,0.5]];portConstraint=eastwest;top=0;left=0;right=0;bottom=0;" parent="VAx4gwtXxQH16esh_LAT-54" vertex="1">
          <mxGeometry y="230" width="249" height="30" as="geometry" />
        </mxCell>
        <mxCell id="VAx4gwtXxQH16esh_LAT-125" value="" style="shape=partialRectangle;overflow=hidden;connectable=0;fillColor=none;top=0;left=0;bottom=0;right=0;" parent="VAx4gwtXxQH16esh_LAT-124" vertex="1">
          <mxGeometry width="30" height="30" as="geometry">
            <mxRectangle width="30" height="30" as="alternateBounds" />
          </mxGeometry>
        </mxCell>
        <mxCell id="VAx4gwtXxQH16esh_LAT-126" value="Email Address" style="shape=partialRectangle;overflow=hidden;connectable=0;fillColor=none;top=0;left=0;bottom=0;right=0;align=left;spacingLeft=6;" parent="VAx4gwtXxQH16esh_LAT-124" vertex="1">
          <mxGeometry x="30" width="219" height="30" as="geometry">
            <mxRectangle width="219" height="30" as="alternateBounds" />
          </mxGeometry>
        </mxCell>
        <mxCell id="8i_SSMUq7YO5LN_3SJa--1" style="shape=partialRectangle;collapsible=0;dropTarget=0;pointerEvents=0;fillColor=none;points=[[0,0.5],[1,0.5]];portConstraint=eastwest;top=0;left=0;right=0;bottom=0;" parent="VAx4gwtXxQH16esh_LAT-54" vertex="1">
          <mxGeometry y="260" width="249" height="30" as="geometry" />
        </mxCell>
        <mxCell id="8i_SSMUq7YO5LN_3SJa--2" style="shape=partialRectangle;overflow=hidden;connectable=0;fillColor=none;top=0;left=0;bottom=0;right=0;" parent="8i_SSMUq7YO5LN_3SJa--1" vertex="1">
          <mxGeometry width="30" height="30" as="geometry">
            <mxRectangle width="30" height="30" as="alternateBounds" />
          </mxGeometry>
        </mxCell>
        <mxCell id="8i_SSMUq7YO5LN_3SJa--3" value="[Age]" style="shape=partialRectangle;overflow=hidden;connectable=0;fillColor=none;top=0;left=0;bottom=0;right=0;align=left;spacingLeft=6;" parent="8i_SSMUq7YO5LN_3SJa--1" vertex="1">
          <mxGeometry x="30" width="219" height="30" as="geometry">
            <mxRectangle width="219" height="30" as="alternateBounds" />
          </mxGeometry>
        </mxCell>
        <mxCell id="ITAxaeXI1BbHKEIixUYD-53" style="shape=partialRectangle;collapsible=0;dropTarget=0;pointerEvents=0;fillColor=none;points=[[0,0.5],[1,0.5]];portConstraint=eastwest;top=0;left=0;right=0;bottom=0;" vertex="1" parent="VAx4gwtXxQH16esh_LAT-54">
          <mxGeometry y="290" width="249" height="30" as="geometry" />
        </mxCell>
        <mxCell id="ITAxaeXI1BbHKEIixUYD-54" style="shape=partialRectangle;overflow=hidden;connectable=0;fillColor=none;top=0;left=0;bottom=0;right=0;" vertex="1" parent="ITAxaeXI1BbHKEIixUYD-53">
          <mxGeometry width="30" height="30" as="geometry">
            <mxRectangle width="30" height="30" as="alternateBounds" />
          </mxGeometry>
        </mxCell>
        <mxCell id="ITAxaeXI1BbHKEIixUYD-55" value="Guest Type" style="shape=partialRectangle;overflow=hidden;connectable=0;fillColor=none;top=0;left=0;bottom=0;right=0;align=left;spacingLeft=6;" vertex="1" parent="ITAxaeXI1BbHKEIixUYD-53">
          <mxGeometry x="30" width="219" height="30" as="geometry">
            <mxRectangle width="219" height="30" as="alternateBounds" />
          </mxGeometry>
        </mxCell>
        <mxCell id="b5UiUd3cwTcGRK4u3dvN-60" style="edgeStyle=orthogonalEdgeStyle;shape=connector;rounded=0;orthogonalLoop=1;jettySize=auto;html=1;exitX=0.5;exitY=0;exitDx=0;exitDy=0;labelBackgroundColor=default;strokeColor=default;strokeWidth=3;align=center;verticalAlign=middle;fontFamily=Helvetica;fontSize=11;fontColor=default;startArrow=ERoneToMany;startFill=0;endArrow=ERmandOne;endFill=0;startSize=15;endSize=15;" parent="1" source="VAx4gwtXxQH16esh_LAT-64" target="VAx4gwtXxQH16esh_LAT-21" edge="1">
          <mxGeometry relative="1" as="geometry" />
        </mxCell>
        <mxCell id="VAx4gwtXxQH16esh_LAT-64" value="CHARGE" style="shape=table;startSize=30;container=1;collapsible=1;childLayout=tableLayout;fixedRows=1;rowLines=0;fontStyle=1;align=center;resizeLast=1;rounded=0;" parent="1" vertex="1">
          <mxGeometry x="1260" y="-300" width="250" height="150" as="geometry" />
        </mxCell>
        <mxCell id="VAx4gwtXxQH16esh_LAT-65" value="" style="shape=partialRectangle;collapsible=0;dropTarget=0;pointerEvents=0;fillColor=none;points=[[0,0.5],[1,0.5]];portConstraint=eastwest;top=0;left=0;right=0;bottom=1;" parent="VAx4gwtXxQH16esh_LAT-64" vertex="1">
          <mxGeometry y="30" width="250" height="30" as="geometry" />
        </mxCell>
        <mxCell id="VAx4gwtXxQH16esh_LAT-66" value="PK" style="shape=partialRectangle;overflow=hidden;connectable=0;fillColor=none;top=0;left=0;bottom=0;right=0;fontStyle=1;" parent="VAx4gwtXxQH16esh_LAT-65" vertex="1">
          <mxGeometry width="30" height="30" as="geometry">
            <mxRectangle width="30" height="30" as="alternateBounds" />
          </mxGeometry>
        </mxCell>
        <mxCell id="VAx4gwtXxQH16esh_LAT-67" value="Charge ID" style="shape=partialRectangle;overflow=hidden;connectable=0;fillColor=none;top=0;left=0;bottom=0;right=0;align=left;spacingLeft=6;fontStyle=5;" parent="VAx4gwtXxQH16esh_LAT-65" vertex="1">
          <mxGeometry x="30" width="220" height="30" as="geometry">
            <mxRectangle width="220" height="30" as="alternateBounds" />
          </mxGeometry>
        </mxCell>
        <mxCell id="VAx4gwtXxQH16esh_LAT-68" value="" style="shape=partialRectangle;collapsible=0;dropTarget=0;pointerEvents=0;fillColor=none;points=[[0,0.5],[1,0.5]];portConstraint=eastwest;top=0;left=0;right=0;bottom=0;" parent="VAx4gwtXxQH16esh_LAT-64" vertex="1">
          <mxGeometry y="60" width="250" height="30" as="geometry" />
        </mxCell>
        <mxCell id="VAx4gwtXxQH16esh_LAT-69" value="FK1" style="shape=partialRectangle;overflow=hidden;connectable=0;fillColor=none;top=0;left=0;bottom=0;right=0;" parent="VAx4gwtXxQH16esh_LAT-68" vertex="1">
          <mxGeometry width="30" height="30" as="geometry">
            <mxRectangle width="30" height="30" as="alternateBounds" />
          </mxGeometry>
        </mxCell>
        <mxCell id="VAx4gwtXxQH16esh_LAT-70" value="BRN ID" style="shape=partialRectangle;overflow=hidden;connectable=0;fillColor=none;top=0;left=0;bottom=0;right=0;align=left;spacingLeft=6;" parent="VAx4gwtXxQH16esh_LAT-68" vertex="1">
          <mxGeometry x="30" width="220" height="30" as="geometry">
            <mxRectangle width="220" height="30" as="alternateBounds" />
          </mxGeometry>
        </mxCell>
        <mxCell id="VAx4gwtXxQH16esh_LAT-71" value="" style="shape=partialRectangle;collapsible=0;dropTarget=0;pointerEvents=0;fillColor=none;points=[[0,0.5],[1,0.5]];portConstraint=eastwest;top=0;left=0;right=0;bottom=0;" parent="VAx4gwtXxQH16esh_LAT-64" vertex="1">
          <mxGeometry y="90" width="250" height="30" as="geometry" />
        </mxCell>
        <mxCell id="VAx4gwtXxQH16esh_LAT-72" value="FK2" style="shape=partialRectangle;overflow=hidden;connectable=0;fillColor=none;top=0;left=0;bottom=0;right=0;" parent="VAx4gwtXxQH16esh_LAT-71" vertex="1">
          <mxGeometry width="30" height="30" as="geometry">
            <mxRectangle width="30" height="30" as="alternateBounds" />
          </mxGeometry>
        </mxCell>
        <mxCell id="VAx4gwtXxQH16esh_LAT-73" value="Room Number" style="shape=partialRectangle;overflow=hidden;connectable=0;fillColor=none;top=0;left=0;bottom=0;right=0;align=left;spacingLeft=6;" parent="VAx4gwtXxQH16esh_LAT-71" vertex="1">
          <mxGeometry x="30" width="220" height="30" as="geometry">
            <mxRectangle width="220" height="30" as="alternateBounds" />
          </mxGeometry>
        </mxCell>
        <mxCell id="HG9v54V7p6iRw-c_0icP-4" value="" style="shape=partialRectangle;collapsible=0;dropTarget=0;pointerEvents=0;fillColor=none;points=[[0,0.5],[1,0.5]];portConstraint=eastwest;top=0;left=0;right=0;bottom=0;" parent="VAx4gwtXxQH16esh_LAT-64" vertex="1">
          <mxGeometry y="120" width="250" height="30" as="geometry" />
        </mxCell>
        <mxCell id="HG9v54V7p6iRw-c_0icP-5" value="" style="shape=partialRectangle;overflow=hidden;connectable=0;fillColor=none;top=0;left=0;bottom=0;right=0;" parent="HG9v54V7p6iRw-c_0icP-4" vertex="1">
          <mxGeometry width="30" height="30" as="geometry">
            <mxRectangle width="30" height="30" as="alternateBounds" />
          </mxGeometry>
        </mxCell>
        <mxCell id="HG9v54V7p6iRw-c_0icP-6" value="Cost" style="shape=partialRectangle;overflow=hidden;connectable=0;fillColor=none;top=0;left=0;bottom=0;right=0;align=left;spacingLeft=6;" parent="HG9v54V7p6iRw-c_0icP-4" vertex="1">
          <mxGeometry x="30" width="220" height="30" as="geometry">
            <mxRectangle width="220" height="30" as="alternateBounds" />
          </mxGeometry>
        </mxCell>
        <mxCell id="b5UiUd3cwTcGRK4u3dvN-77" style="edgeStyle=orthogonalEdgeStyle;shape=connector;rounded=0;orthogonalLoop=1;jettySize=auto;html=1;labelBackgroundColor=default;strokeColor=default;strokeWidth=3;align=center;verticalAlign=middle;fontFamily=Helvetica;fontSize=11;fontColor=default;startArrow=ERzeroToOne;startFill=0;endArrow=ERoneToMany;endFill=0;startSize=15;endSize=15;" parent="1" source="VAx4gwtXxQH16esh_LAT-77" target="VAx4gwtXxQH16esh_LAT-64" edge="1">
          <mxGeometry relative="1" as="geometry">
            <mxPoint x="835" y="-384.9999999999982" as="targetPoint" />
            <Array as="points">
              <mxPoint x="820" y="-210" />
            </Array>
          </mxGeometry>
        </mxCell>
        <mxCell id="VAx4gwtXxQH16esh_LAT-77" value="ROOM" style="shape=table;startSize=30;container=1;collapsible=1;childLayout=tableLayout;fixedRows=1;rowLines=0;fontStyle=1;align=center;resizeLast=1;" parent="1" vertex="1">
          <mxGeometry x="610" y="-140" width="250" height="90" as="geometry" />
        </mxCell>
        <mxCell id="VAx4gwtXxQH16esh_LAT-78" value="" style="shape=partialRectangle;collapsible=0;dropTarget=0;pointerEvents=0;fillColor=none;points=[[0,0.5],[1,0.5]];portConstraint=eastwest;top=0;left=0;right=0;bottom=1;" parent="VAx4gwtXxQH16esh_LAT-77" vertex="1">
          <mxGeometry y="30" width="250" height="30" as="geometry" />
        </mxCell>
        <mxCell id="VAx4gwtXxQH16esh_LAT-79" value="PK" style="shape=partialRectangle;overflow=hidden;connectable=0;fillColor=none;top=0;left=0;bottom=0;right=0;fontStyle=1;" parent="VAx4gwtXxQH16esh_LAT-78" vertex="1">
          <mxGeometry width="30" height="30" as="geometry">
            <mxRectangle width="30" height="30" as="alternateBounds" />
          </mxGeometry>
        </mxCell>
        <mxCell id="VAx4gwtXxQH16esh_LAT-80" value="Room Number" style="shape=partialRectangle;overflow=hidden;connectable=0;fillColor=none;top=0;left=0;bottom=0;right=0;align=left;spacingLeft=6;fontStyle=5;" parent="VAx4gwtXxQH16esh_LAT-78" vertex="1">
          <mxGeometry x="30" width="220" height="30" as="geometry">
            <mxRectangle width="220" height="30" as="alternateBounds" />
          </mxGeometry>
        </mxCell>
        <mxCell id="VAx4gwtXxQH16esh_LAT-81" value="" style="shape=partialRectangle;collapsible=0;dropTarget=0;pointerEvents=0;fillColor=none;points=[[0,0.5],[1,0.5]];portConstraint=eastwest;top=0;left=0;right=0;bottom=0;" parent="VAx4gwtXxQH16esh_LAT-77" vertex="1">
          <mxGeometry y="60" width="250" height="30" as="geometry" />
        </mxCell>
        <mxCell id="VAx4gwtXxQH16esh_LAT-82" value="FK1" style="shape=partialRectangle;overflow=hidden;connectable=0;fillColor=none;top=0;left=0;bottom=0;right=0;" parent="VAx4gwtXxQH16esh_LAT-81" vertex="1">
          <mxGeometry width="30" height="30" as="geometry">
            <mxRectangle width="30" height="30" as="alternateBounds" />
          </mxGeometry>
        </mxCell>
        <mxCell id="VAx4gwtXxQH16esh_LAT-83" value="Room Type" style="shape=partialRectangle;overflow=hidden;connectable=0;fillColor=none;top=0;left=0;bottom=0;right=0;align=left;spacingLeft=6;" parent="VAx4gwtXxQH16esh_LAT-81" vertex="1">
          <mxGeometry x="30" width="220" height="30" as="geometry">
            <mxRectangle width="220" height="30" as="alternateBounds" />
          </mxGeometry>
        </mxCell>
        <mxCell id="VAx4gwtXxQH16esh_LAT-102" value="SERVICE" style="shape=table;startSize=30;container=1;collapsible=1;childLayout=tableLayout;fixedRows=1;rowLines=0;fontStyle=1;align=center;resizeLast=1;" parent="1" vertex="1">
          <mxGeometry y="-205" width="250" height="160.00000000000182" as="geometry" />
        </mxCell>
        <mxCell id="VAx4gwtXxQH16esh_LAT-103" value="" style="shape=partialRectangle;collapsible=0;dropTarget=0;pointerEvents=0;fillColor=none;points=[[0,0.5],[1,0.5]];portConstraint=eastwest;top=0;left=0;right=0;bottom=1;" parent="VAx4gwtXxQH16esh_LAT-102" vertex="1">
          <mxGeometry y="30" width="250" height="30" as="geometry" />
        </mxCell>
        <mxCell id="VAx4gwtXxQH16esh_LAT-104" value="PK" style="shape=partialRectangle;overflow=hidden;connectable=0;fillColor=none;top=0;left=0;bottom=0;right=0;fontStyle=1;" parent="VAx4gwtXxQH16esh_LAT-103" vertex="1">
          <mxGeometry width="30" height="30" as="geometry">
            <mxRectangle width="30" height="30" as="alternateBounds" />
          </mxGeometry>
        </mxCell>
        <mxCell id="VAx4gwtXxQH16esh_LAT-105" value="Service ID" style="shape=partialRectangle;overflow=hidden;connectable=0;fillColor=none;top=0;left=0;bottom=0;right=0;align=left;spacingLeft=6;fontStyle=5;" parent="VAx4gwtXxQH16esh_LAT-103" vertex="1">
          <mxGeometry x="30" width="220" height="30" as="geometry">
            <mxRectangle width="220" height="30" as="alternateBounds" />
          </mxGeometry>
        </mxCell>
        <mxCell id="VAx4gwtXxQH16esh_LAT-109" value="" style="shape=partialRectangle;collapsible=0;dropTarget=0;pointerEvents=0;fillColor=none;points=[[0,0.5],[1,0.5]];portConstraint=eastwest;top=0;left=0;right=0;bottom=0;" parent="VAx4gwtXxQH16esh_LAT-102" vertex="1">
          <mxGeometry y="60" width="250" height="35" as="geometry" />
        </mxCell>
        <mxCell id="VAx4gwtXxQH16esh_LAT-110" value="" style="shape=partialRectangle;overflow=hidden;connectable=0;fillColor=none;top=0;left=0;bottom=0;right=0;" parent="VAx4gwtXxQH16esh_LAT-109" vertex="1">
          <mxGeometry width="30" height="35" as="geometry">
            <mxRectangle width="30" height="35" as="alternateBounds" />
          </mxGeometry>
        </mxCell>
        <mxCell id="VAx4gwtXxQH16esh_LAT-111" value="Service Name" style="shape=partialRectangle;overflow=hidden;connectable=0;fillColor=none;top=0;left=0;bottom=0;right=0;align=left;spacingLeft=6;" parent="VAx4gwtXxQH16esh_LAT-109" vertex="1">
          <mxGeometry x="30" width="220" height="35" as="geometry">
            <mxRectangle width="220" height="35" as="alternateBounds" />
          </mxGeometry>
        </mxCell>
        <mxCell id="ITAxaeXI1BbHKEIixUYD-92" style="shape=partialRectangle;collapsible=0;dropTarget=0;pointerEvents=0;fillColor=none;points=[[0,0.5],[1,0.5]];portConstraint=eastwest;top=0;left=0;right=0;bottom=0;" vertex="1" parent="VAx4gwtXxQH16esh_LAT-102">
          <mxGeometry y="95" width="250" height="35" as="geometry" />
        </mxCell>
        <mxCell id="ITAxaeXI1BbHKEIixUYD-93" style="shape=partialRectangle;overflow=hidden;connectable=0;fillColor=none;top=0;left=0;bottom=0;right=0;" vertex="1" parent="ITAxaeXI1BbHKEIixUYD-92">
          <mxGeometry width="30" height="35" as="geometry">
            <mxRectangle width="30" height="35" as="alternateBounds" />
          </mxGeometry>
        </mxCell>
        <mxCell id="ITAxaeXI1BbHKEIixUYD-94" value="Service Type" style="shape=partialRectangle;overflow=hidden;connectable=0;fillColor=none;top=0;left=0;bottom=0;right=0;align=left;spacingLeft=6;" vertex="1" parent="ITAxaeXI1BbHKEIixUYD-92">
          <mxGeometry x="30" width="220" height="35" as="geometry">
            <mxRectangle width="220" height="35" as="alternateBounds" />
          </mxGeometry>
        </mxCell>
        <mxCell id="VAx4gwtXxQH16esh_LAT-194" value="" style="shape=partialRectangle;collapsible=0;dropTarget=0;pointerEvents=0;fillColor=none;points=[[0,0.5],[1,0.5]];portConstraint=eastwest;top=0;left=0;right=0;bottom=0;" parent="VAx4gwtXxQH16esh_LAT-102" vertex="1">
          <mxGeometry y="130" width="250" height="30" as="geometry" />
        </mxCell>
        <mxCell id="VAx4gwtXxQH16esh_LAT-195" value="" style="shape=partialRectangle;overflow=hidden;connectable=0;fillColor=none;top=0;left=0;bottom=0;right=0;" parent="VAx4gwtXxQH16esh_LAT-194" vertex="1">
          <mxGeometry width="30" height="30" as="geometry">
            <mxRectangle width="30" height="30" as="alternateBounds" />
          </mxGeometry>
        </mxCell>
        <mxCell id="VAx4gwtXxQH16esh_LAT-196" value="Employee Type" style="shape=partialRectangle;overflow=hidden;connectable=0;fillColor=none;top=0;left=0;bottom=0;right=0;align=left;spacingLeft=6;" parent="VAx4gwtXxQH16esh_LAT-194" vertex="1">
          <mxGeometry x="30" width="220" height="30" as="geometry">
            <mxRectangle width="220" height="30" as="alternateBounds" />
          </mxGeometry>
        </mxCell>
        <mxCell id="VAx4gwtXxQH16esh_LAT-154" value="HOUSEKEEPING" style="shape=table;startSize=30;container=1;collapsible=1;childLayout=tableLayout;fixedRows=1;rowLines=0;fontStyle=1;align=center;resizeLast=1;" parent="1" vertex="1">
          <mxGeometry x="-40" y="-770" width="250" height="60" as="geometry" />
        </mxCell>
        <mxCell id="VAx4gwtXxQH16esh_LAT-161" value="" style="shape=partialRectangle;collapsible=0;dropTarget=0;pointerEvents=0;fillColor=none;points=[[0,0.5],[1,0.5]];portConstraint=eastwest;top=0;left=0;right=0;bottom=0;" parent="VAx4gwtXxQH16esh_LAT-154" vertex="1">
          <mxGeometry y="30" width="250" height="30" as="geometry" />
        </mxCell>
        <mxCell id="VAx4gwtXxQH16esh_LAT-162" value="" style="shape=partialRectangle;overflow=hidden;connectable=0;fillColor=none;top=0;left=0;bottom=0;right=0;" parent="VAx4gwtXxQH16esh_LAT-161" vertex="1">
          <mxGeometry width="30" height="30" as="geometry">
            <mxRectangle width="30" height="30" as="alternateBounds" />
          </mxGeometry>
        </mxCell>
        <mxCell id="VAx4gwtXxQH16esh_LAT-163" value="" style="shape=partialRectangle;overflow=hidden;connectable=0;fillColor=none;top=0;left=0;bottom=0;right=0;align=left;spacingLeft=6;" parent="VAx4gwtXxQH16esh_LAT-161" vertex="1">
          <mxGeometry x="30" width="220" height="30" as="geometry">
            <mxRectangle width="220" height="30" as="alternateBounds" />
          </mxGeometry>
        </mxCell>
        <mxCell id="VAx4gwtXxQH16esh_LAT-164" value="CONCIERGE" style="shape=table;startSize=30;container=1;collapsible=1;childLayout=tableLayout;fixedRows=1;rowLines=0;fontStyle=1;align=center;resizeLast=1;" parent="1" vertex="1">
          <mxGeometry x="-540" y="-930" width="250" height="60" as="geometry" />
        </mxCell>
        <mxCell id="VAx4gwtXxQH16esh_LAT-165" value="" style="shape=partialRectangle;collapsible=0;dropTarget=0;pointerEvents=0;fillColor=none;points=[[0,0.5],[1,0.5]];portConstraint=eastwest;top=0;left=0;right=0;bottom=0;" parent="VAx4gwtXxQH16esh_LAT-164" vertex="1">
          <mxGeometry y="30" width="250" height="30" as="geometry" />
        </mxCell>
        <mxCell id="VAx4gwtXxQH16esh_LAT-166" value="" style="shape=partialRectangle;overflow=hidden;connectable=0;fillColor=none;top=0;left=0;bottom=0;right=0;" parent="VAx4gwtXxQH16esh_LAT-165" vertex="1">
          <mxGeometry width="30" height="30" as="geometry">
            <mxRectangle width="30" height="30" as="alternateBounds" />
          </mxGeometry>
        </mxCell>
        <mxCell id="VAx4gwtXxQH16esh_LAT-167" value="" style="shape=partialRectangle;overflow=hidden;connectable=0;fillColor=none;top=0;left=0;bottom=0;right=0;align=left;spacingLeft=6;" parent="VAx4gwtXxQH16esh_LAT-165" vertex="1">
          <mxGeometry x="30" width="220" height="30" as="geometry">
            <mxRectangle width="220" height="30" as="alternateBounds" />
          </mxGeometry>
        </mxCell>
        <mxCell id="VAx4gwtXxQH16esh_LAT-168" value="KITCHEN" style="shape=table;startSize=30;container=1;collapsible=1;childLayout=tableLayout;fixedRows=1;rowLines=0;fontStyle=1;align=center;resizeLast=1;" parent="1" vertex="1">
          <mxGeometry x="-290" y="-850" width="250" height="60" as="geometry" />
        </mxCell>
        <mxCell id="VAx4gwtXxQH16esh_LAT-169" value="" style="shape=partialRectangle;collapsible=0;dropTarget=0;pointerEvents=0;fillColor=none;points=[[0,0.5],[1,0.5]];portConstraint=eastwest;top=0;left=0;right=0;bottom=0;" parent="VAx4gwtXxQH16esh_LAT-168" vertex="1">
          <mxGeometry y="30" width="250" height="30" as="geometry" />
        </mxCell>
        <mxCell id="VAx4gwtXxQH16esh_LAT-170" value="" style="shape=partialRectangle;overflow=hidden;connectable=0;fillColor=none;top=0;left=0;bottom=0;right=0;" parent="VAx4gwtXxQH16esh_LAT-169" vertex="1">
          <mxGeometry width="30" height="30" as="geometry">
            <mxRectangle width="30" height="30" as="alternateBounds" />
          </mxGeometry>
        </mxCell>
        <mxCell id="VAx4gwtXxQH16esh_LAT-171" value="" style="shape=partialRectangle;overflow=hidden;connectable=0;fillColor=none;top=0;left=0;bottom=0;right=0;align=left;spacingLeft=6;" parent="VAx4gwtXxQH16esh_LAT-169" vertex="1">
          <mxGeometry x="30" width="220" height="30" as="geometry">
            <mxRectangle width="220" height="30" as="alternateBounds" />
          </mxGeometry>
        </mxCell>
        <mxCell id="VAx4gwtXxQH16esh_LAT-193" value="" style="edgeStyle=elbowEdgeStyle;elbow=horizontal;endArrow=ERzeroToMany;html=1;curved=0;rounded=0;endSize=15;startSize=15;exitX=1;exitY=0.5;exitDx=0;exitDy=0;endFill=0;strokeWidth=3;startArrow=ERmandOne;startFill=0;entryX=0.002;entryY=-0.176;entryDx=0;entryDy=0;entryPerimeter=0;" parent="1" source="VAx4gwtXxQH16esh_LAT-51" target="VAx4gwtXxQH16esh_LAT-136" edge="1">
          <mxGeometry width="50" height="50" relative="1" as="geometry">
            <mxPoint x="880" y="-940" as="sourcePoint" />
            <mxPoint x="880" y="-825" as="targetPoint" />
            <Array as="points">
              <mxPoint x="830" y="-820" />
            </Array>
          </mxGeometry>
        </mxCell>
        <mxCell id="oh-zsZeyz2NlOSMME_IB-1" value="d" style="text;html=1;strokeColor=none;fillColor=none;align=center;verticalAlign=middle;whiteSpace=wrap;rounded=0;" parent="1" vertex="1">
          <mxGeometry x="12.5" y="-1005" width="25" height="30" as="geometry" />
        </mxCell>
        <mxCell id="8i_SSMUq7YO5LN_3SJa--5" value="EMPLOYEE" style="shape=table;startSize=30;container=1;collapsible=1;childLayout=tableLayout;fixedRows=1;rowLines=0;fontStyle=1;align=center;resizeLast=1;" parent="1" vertex="1">
          <mxGeometry x="-98.5" y="-1440" width="249" height="350" as="geometry" />
        </mxCell>
        <mxCell id="8i_SSMUq7YO5LN_3SJa--6" value="" style="shape=partialRectangle;collapsible=0;dropTarget=0;pointerEvents=0;fillColor=none;points=[[0,0.5],[1,0.5]];portConstraint=eastwest;top=0;left=0;right=0;bottom=1;" parent="8i_SSMUq7YO5LN_3SJa--5" vertex="1">
          <mxGeometry y="30" width="249" height="30" as="geometry" />
        </mxCell>
        <mxCell id="8i_SSMUq7YO5LN_3SJa--7" value="PK" style="shape=partialRectangle;overflow=hidden;connectable=0;fillColor=none;top=0;left=0;bottom=0;right=0;fontStyle=1;" parent="8i_SSMUq7YO5LN_3SJa--6" vertex="1">
          <mxGeometry width="30" height="30" as="geometry">
            <mxRectangle width="30" height="30" as="alternateBounds" />
          </mxGeometry>
        </mxCell>
        <mxCell id="8i_SSMUq7YO5LN_3SJa--8" value="Employee ID" style="shape=partialRectangle;overflow=hidden;connectable=0;fillColor=none;top=0;left=0;bottom=0;right=0;align=left;spacingLeft=6;fontStyle=5;" parent="8i_SSMUq7YO5LN_3SJa--6" vertex="1">
          <mxGeometry x="30" width="219" height="30" as="geometry">
            <mxRectangle width="219" height="30" as="alternateBounds" />
          </mxGeometry>
        </mxCell>
        <mxCell id="8i_SSMUq7YO5LN_3SJa--9" value="" style="shape=partialRectangle;collapsible=0;dropTarget=0;pointerEvents=0;fillColor=none;points=[[0,0.5],[1,0.5]];portConstraint=eastwest;top=0;left=0;right=0;bottom=0;" parent="8i_SSMUq7YO5LN_3SJa--5" vertex="1">
          <mxGeometry y="60" width="249" height="50" as="geometry" />
        </mxCell>
        <mxCell id="8i_SSMUq7YO5LN_3SJa--10" value="" style="shape=partialRectangle;overflow=hidden;connectable=0;fillColor=none;top=0;left=0;bottom=0;right=0;" parent="8i_SSMUq7YO5LN_3SJa--9" vertex="1">
          <mxGeometry width="30" height="50" as="geometry">
            <mxRectangle width="30" height="50" as="alternateBounds" />
          </mxGeometry>
        </mxCell>
        <mxCell id="8i_SSMUq7YO5LN_3SJa--11" value="Employee Name (First Name, Middle &#xa;Name, Last Name)" style="shape=partialRectangle;overflow=hidden;connectable=0;fillColor=none;top=0;left=0;bottom=0;right=0;align=left;spacingLeft=6;" parent="8i_SSMUq7YO5LN_3SJa--9" vertex="1">
          <mxGeometry x="30" width="219" height="50" as="geometry">
            <mxRectangle width="219" height="50" as="alternateBounds" />
          </mxGeometry>
        </mxCell>
        <mxCell id="8i_SSMUq7YO5LN_3SJa--12" value="" style="shape=partialRectangle;collapsible=0;dropTarget=0;pointerEvents=0;fillColor=none;points=[[0,0.5],[1,0.5]];portConstraint=eastwest;top=0;left=0;right=0;bottom=0;" parent="8i_SSMUq7YO5LN_3SJa--5" vertex="1">
          <mxGeometry y="110" width="249" height="30" as="geometry" />
        </mxCell>
        <mxCell id="8i_SSMUq7YO5LN_3SJa--13" value="" style="shape=partialRectangle;overflow=hidden;connectable=0;fillColor=none;top=0;left=0;bottom=0;right=0;" parent="8i_SSMUq7YO5LN_3SJa--12" vertex="1">
          <mxGeometry width="30" height="30" as="geometry">
            <mxRectangle width="30" height="30" as="alternateBounds" />
          </mxGeometry>
        </mxCell>
        <mxCell id="8i_SSMUq7YO5LN_3SJa--14" value="Birthday" style="shape=partialRectangle;overflow=hidden;connectable=0;fillColor=none;top=0;left=0;bottom=0;right=0;align=left;spacingLeft=6;" parent="8i_SSMUq7YO5LN_3SJa--12" vertex="1">
          <mxGeometry x="30" width="219" height="30" as="geometry">
            <mxRectangle width="219" height="30" as="alternateBounds" />
          </mxGeometry>
        </mxCell>
        <mxCell id="8i_SSMUq7YO5LN_3SJa--15" value="" style="shape=partialRectangle;collapsible=0;dropTarget=0;pointerEvents=0;fillColor=none;points=[[0,0.5],[1,0.5]];portConstraint=eastwest;top=0;left=0;right=0;bottom=0;" parent="8i_SSMUq7YO5LN_3SJa--5" vertex="1">
          <mxGeometry y="140" width="249" height="30" as="geometry" />
        </mxCell>
        <mxCell id="8i_SSMUq7YO5LN_3SJa--16" value="" style="shape=partialRectangle;overflow=hidden;connectable=0;fillColor=none;top=0;left=0;bottom=0;right=0;" parent="8i_SSMUq7YO5LN_3SJa--15" vertex="1">
          <mxGeometry width="30" height="30" as="geometry">
            <mxRectangle width="30" height="30" as="alternateBounds" />
          </mxGeometry>
        </mxCell>
        <mxCell id="8i_SSMUq7YO5LN_3SJa--17" value="Address" style="shape=partialRectangle;overflow=hidden;connectable=0;fillColor=none;top=0;left=0;bottom=0;right=0;align=left;spacingLeft=6;" parent="8i_SSMUq7YO5LN_3SJa--15" vertex="1">
          <mxGeometry x="30" width="219" height="30" as="geometry">
            <mxRectangle width="219" height="30" as="alternateBounds" />
          </mxGeometry>
        </mxCell>
        <mxCell id="8i_SSMUq7YO5LN_3SJa--18" value="" style="shape=partialRectangle;collapsible=0;dropTarget=0;pointerEvents=0;fillColor=none;points=[[0,0.5],[1,0.5]];portConstraint=eastwest;top=0;left=0;right=0;bottom=0;" parent="8i_SSMUq7YO5LN_3SJa--5" vertex="1">
          <mxGeometry y="170" width="249" height="30" as="geometry" />
        </mxCell>
        <mxCell id="8i_SSMUq7YO5LN_3SJa--19" value="" style="shape=partialRectangle;overflow=hidden;connectable=0;fillColor=none;top=0;left=0;bottom=0;right=0;" parent="8i_SSMUq7YO5LN_3SJa--18" vertex="1">
          <mxGeometry width="30" height="30" as="geometry">
            <mxRectangle width="30" height="30" as="alternateBounds" />
          </mxGeometry>
        </mxCell>
        <mxCell id="8i_SSMUq7YO5LN_3SJa--20" value="Contact Number " style="shape=partialRectangle;overflow=hidden;connectable=0;fillColor=none;top=0;left=0;bottom=0;right=0;align=left;spacingLeft=6;" parent="8i_SSMUq7YO5LN_3SJa--18" vertex="1">
          <mxGeometry x="30" width="219" height="30" as="geometry">
            <mxRectangle width="219" height="30" as="alternateBounds" />
          </mxGeometry>
        </mxCell>
        <mxCell id="8i_SSMUq7YO5LN_3SJa--21" value="" style="shape=partialRectangle;collapsible=0;dropTarget=0;pointerEvents=0;fillColor=none;points=[[0,0.5],[1,0.5]];portConstraint=eastwest;top=0;left=0;right=0;bottom=0;" parent="8i_SSMUq7YO5LN_3SJa--5" vertex="1">
          <mxGeometry y="200" width="249" height="30" as="geometry" />
        </mxCell>
        <mxCell id="8i_SSMUq7YO5LN_3SJa--22" value="" style="shape=partialRectangle;overflow=hidden;connectable=0;fillColor=none;top=0;left=0;bottom=0;right=0;" parent="8i_SSMUq7YO5LN_3SJa--21" vertex="1">
          <mxGeometry width="30" height="30" as="geometry">
            <mxRectangle width="30" height="30" as="alternateBounds" />
          </mxGeometry>
        </mxCell>
        <mxCell id="8i_SSMUq7YO5LN_3SJa--23" value="Email Address" style="shape=partialRectangle;overflow=hidden;connectable=0;fillColor=none;top=0;left=0;bottom=0;right=0;align=left;spacingLeft=6;" parent="8i_SSMUq7YO5LN_3SJa--21" vertex="1">
          <mxGeometry x="30" width="219" height="30" as="geometry">
            <mxRectangle width="219" height="30" as="alternateBounds" />
          </mxGeometry>
        </mxCell>
        <mxCell id="8i_SSMUq7YO5LN_3SJa--24" style="shape=partialRectangle;collapsible=0;dropTarget=0;pointerEvents=0;fillColor=none;points=[[0,0.5],[1,0.5]];portConstraint=eastwest;top=0;left=0;right=0;bottom=0;" parent="8i_SSMUq7YO5LN_3SJa--5" vertex="1">
          <mxGeometry y="230" width="249" height="30" as="geometry" />
        </mxCell>
        <mxCell id="8i_SSMUq7YO5LN_3SJa--25" style="shape=partialRectangle;overflow=hidden;connectable=0;fillColor=none;top=0;left=0;bottom=0;right=0;" parent="8i_SSMUq7YO5LN_3SJa--24" vertex="1">
          <mxGeometry width="30" height="30" as="geometry">
            <mxRectangle width="30" height="30" as="alternateBounds" />
          </mxGeometry>
        </mxCell>
        <mxCell id="8i_SSMUq7YO5LN_3SJa--26" value="[Age]" style="shape=partialRectangle;overflow=hidden;connectable=0;fillColor=none;top=0;left=0;bottom=0;right=0;align=left;spacingLeft=6;" parent="8i_SSMUq7YO5LN_3SJa--24" vertex="1">
          <mxGeometry x="30" width="219" height="30" as="geometry">
            <mxRectangle width="219" height="30" as="alternateBounds" />
          </mxGeometry>
        </mxCell>
        <mxCell id="ITAxaeXI1BbHKEIixUYD-1" style="shape=partialRectangle;collapsible=0;dropTarget=0;pointerEvents=0;fillColor=none;points=[[0,0.5],[1,0.5]];portConstraint=eastwest;top=0;left=0;right=0;bottom=0;" vertex="1" parent="8i_SSMUq7YO5LN_3SJa--5">
          <mxGeometry y="260" width="249" height="30" as="geometry" />
        </mxCell>
        <mxCell id="ITAxaeXI1BbHKEIixUYD-2" style="shape=partialRectangle;overflow=hidden;connectable=0;fillColor=none;top=0;left=0;bottom=0;right=0;" vertex="1" parent="ITAxaeXI1BbHKEIixUYD-1">
          <mxGeometry width="30" height="30" as="geometry">
            <mxRectangle width="30" height="30" as="alternateBounds" />
          </mxGeometry>
        </mxCell>
        <mxCell id="ITAxaeXI1BbHKEIixUYD-3" value="Salary" style="shape=partialRectangle;overflow=hidden;connectable=0;fillColor=none;top=0;left=0;bottom=0;right=0;align=left;spacingLeft=6;" vertex="1" parent="ITAxaeXI1BbHKEIixUYD-1">
          <mxGeometry x="30" width="219" height="30" as="geometry">
            <mxRectangle width="219" height="30" as="alternateBounds" />
          </mxGeometry>
        </mxCell>
        <mxCell id="4OLoFxbU8ZjZ9kezu3H6-4" style="shape=partialRectangle;collapsible=0;dropTarget=0;pointerEvents=0;fillColor=none;points=[[0,0.5],[1,0.5]];portConstraint=eastwest;top=0;left=0;right=0;bottom=0;" parent="8i_SSMUq7YO5LN_3SJa--5" vertex="1">
          <mxGeometry y="290" width="249" height="30" as="geometry" />
        </mxCell>
        <mxCell id="4OLoFxbU8ZjZ9kezu3H6-5" style="shape=partialRectangle;overflow=hidden;connectable=0;fillColor=none;top=0;left=0;bottom=0;right=0;" parent="4OLoFxbU8ZjZ9kezu3H6-4" vertex="1">
          <mxGeometry width="30" height="30" as="geometry">
            <mxRectangle width="30" height="30" as="alternateBounds" />
          </mxGeometry>
        </mxCell>
        <mxCell id="4OLoFxbU8ZjZ9kezu3H6-6" value="Supervisor" style="shape=partialRectangle;overflow=hidden;connectable=0;fillColor=none;top=0;left=0;bottom=0;right=0;align=left;spacingLeft=6;" parent="4OLoFxbU8ZjZ9kezu3H6-4" vertex="1">
          <mxGeometry x="30" width="219" height="30" as="geometry">
            <mxRectangle width="219" height="30" as="alternateBounds" />
          </mxGeometry>
        </mxCell>
        <mxCell id="8i_SSMUq7YO5LN_3SJa--27" style="shape=partialRectangle;collapsible=0;dropTarget=0;pointerEvents=0;fillColor=none;points=[[0,0.5],[1,0.5]];portConstraint=eastwest;top=0;left=0;right=0;bottom=0;" parent="8i_SSMUq7YO5LN_3SJa--5" vertex="1">
          <mxGeometry y="320" width="249" height="30" as="geometry" />
        </mxCell>
        <mxCell id="8i_SSMUq7YO5LN_3SJa--28" style="shape=partialRectangle;overflow=hidden;connectable=0;fillColor=none;top=0;left=0;bottom=0;right=0;" parent="8i_SSMUq7YO5LN_3SJa--27" vertex="1">
          <mxGeometry width="30" height="30" as="geometry">
            <mxRectangle width="30" height="30" as="alternateBounds" />
          </mxGeometry>
        </mxCell>
        <mxCell id="8i_SSMUq7YO5LN_3SJa--29" value="Employee Type" style="shape=partialRectangle;overflow=hidden;connectable=0;fillColor=none;top=0;left=0;bottom=0;right=0;align=left;spacingLeft=6;" parent="8i_SSMUq7YO5LN_3SJa--27" vertex="1">
          <mxGeometry x="30" width="219" height="30" as="geometry">
            <mxRectangle width="219" height="30" as="alternateBounds" />
          </mxGeometry>
        </mxCell>
        <mxCell id="8i_SSMUq7YO5LN_3SJa--30" value="" style="endArrow=ERmandOne;html=1;rounded=0;labelBackgroundColor=default;strokeColor=default;strokeWidth=3;align=center;verticalAlign=middle;fontFamily=Helvetica;fontSize=11;fontColor=default;startSize=15;endSize=15;shape=connector;elbow=horizontal;edgeStyle=orthogonalEdgeStyle;endFill=0;startArrow=ERzeroToMany;startFill=0;" parent="1" source="agrQYRMtIA3MOH0goCUR-33" target="VAx4gwtXxQH16esh_LAT-64" edge="1">
          <mxGeometry width="50" height="50" relative="1" as="geometry">
            <mxPoint x="609" y="-35" as="sourcePoint" />
            <mxPoint x="1004.0303030303035" y="-260" as="targetPoint" />
            <Array as="points">
              <mxPoint x="1005" y="250" />
              <mxPoint x="1005" y="-90" />
              <mxPoint x="1385" y="-90" />
            </Array>
          </mxGeometry>
        </mxCell>
        <mxCell id="agrQYRMtIA3MOH0goCUR-33" value="SERVICE LINE" style="shape=table;startSize=30;container=1;collapsible=1;childLayout=tableLayout;fixedRows=1;rowLines=0;fontStyle=1;align=center;resizeLast=1;rounded=1;" parent="1" vertex="1">
          <mxGeometry x="340" y="150" width="250" height="180" as="geometry" />
        </mxCell>
        <mxCell id="agrQYRMtIA3MOH0goCUR-34" value="" style="shape=partialRectangle;collapsible=0;dropTarget=0;pointerEvents=0;fillColor=none;points=[[0,0.5],[1,0.5]];portConstraint=eastwest;top=0;left=0;right=0;bottom=1;" parent="agrQYRMtIA3MOH0goCUR-33" vertex="1">
          <mxGeometry y="30" width="250" height="30" as="geometry" />
        </mxCell>
        <mxCell id="agrQYRMtIA3MOH0goCUR-35" value="PK" style="shape=partialRectangle;overflow=hidden;connectable=0;fillColor=none;top=0;left=0;bottom=0;right=0;fontStyle=1;" parent="agrQYRMtIA3MOH0goCUR-34" vertex="1">
          <mxGeometry width="30" height="30" as="geometry">
            <mxRectangle width="30" height="30" as="alternateBounds" />
          </mxGeometry>
        </mxCell>
        <mxCell id="agrQYRMtIA3MOH0goCUR-36" value="Service Line ID" style="shape=partialRectangle;overflow=hidden;connectable=0;fillColor=none;top=0;left=0;bottom=0;right=0;align=left;spacingLeft=6;fontStyle=5;" parent="agrQYRMtIA3MOH0goCUR-34" vertex="1">
          <mxGeometry x="30" width="220" height="30" as="geometry">
            <mxRectangle width="220" height="30" as="alternateBounds" />
          </mxGeometry>
        </mxCell>
        <mxCell id="agrQYRMtIA3MOH0goCUR-37" value="" style="shape=partialRectangle;collapsible=0;dropTarget=0;pointerEvents=0;fillColor=none;points=[[0,0.5],[1,0.5]];portConstraint=eastwest;top=0;left=0;right=0;bottom=0;" parent="agrQYRMtIA3MOH0goCUR-33" vertex="1">
          <mxGeometry y="60" width="250" height="30" as="geometry" />
        </mxCell>
        <mxCell id="agrQYRMtIA3MOH0goCUR-38" value="FK1" style="shape=partialRectangle;overflow=hidden;connectable=0;fillColor=none;top=0;left=0;bottom=0;right=0;" parent="agrQYRMtIA3MOH0goCUR-37" vertex="1">
          <mxGeometry width="30" height="30" as="geometry">
            <mxRectangle width="30" height="30" as="alternateBounds" />
          </mxGeometry>
        </mxCell>
        <mxCell id="agrQYRMtIA3MOH0goCUR-39" value="Charge ID" style="shape=partialRectangle;overflow=hidden;connectable=0;fillColor=none;top=0;left=0;bottom=0;right=0;align=left;spacingLeft=6;" parent="agrQYRMtIA3MOH0goCUR-37" vertex="1">
          <mxGeometry x="30" width="220" height="30" as="geometry">
            <mxRectangle width="220" height="30" as="alternateBounds" />
          </mxGeometry>
        </mxCell>
        <mxCell id="agrQYRMtIA3MOH0goCUR-43" value="" style="shape=partialRectangle;collapsible=0;dropTarget=0;pointerEvents=0;fillColor=none;points=[[0,0.5],[1,0.5]];portConstraint=eastwest;top=0;left=0;right=0;bottom=0;" parent="agrQYRMtIA3MOH0goCUR-33" vertex="1">
          <mxGeometry y="90" width="250" height="30" as="geometry" />
        </mxCell>
        <mxCell id="agrQYRMtIA3MOH0goCUR-44" value="FK2" style="shape=partialRectangle;overflow=hidden;connectable=0;fillColor=none;top=0;left=0;bottom=0;right=0;" parent="agrQYRMtIA3MOH0goCUR-43" vertex="1">
          <mxGeometry width="30" height="30" as="geometry">
            <mxRectangle width="30" height="30" as="alternateBounds" />
          </mxGeometry>
        </mxCell>
        <mxCell id="agrQYRMtIA3MOH0goCUR-45" value="Service ID" style="shape=partialRectangle;overflow=hidden;connectable=0;fillColor=none;top=0;left=0;bottom=0;right=0;align=left;spacingLeft=6;" parent="agrQYRMtIA3MOH0goCUR-43" vertex="1">
          <mxGeometry x="30" width="220" height="30" as="geometry">
            <mxRectangle width="220" height="30" as="alternateBounds" />
          </mxGeometry>
        </mxCell>
        <mxCell id="InM_dgTHcNlFLqxI31jz-2" style="shape=partialRectangle;collapsible=0;dropTarget=0;pointerEvents=0;fillColor=none;points=[[0,0.5],[1,0.5]];portConstraint=eastwest;top=0;left=0;right=0;bottom=0;" parent="agrQYRMtIA3MOH0goCUR-33" vertex="1">
          <mxGeometry y="120" width="250" height="30" as="geometry" />
        </mxCell>
        <mxCell id="InM_dgTHcNlFLqxI31jz-3" value="FK3" style="shape=partialRectangle;overflow=hidden;connectable=0;fillColor=none;top=0;left=0;bottom=0;right=0;" parent="InM_dgTHcNlFLqxI31jz-2" vertex="1">
          <mxGeometry width="30" height="30" as="geometry">
            <mxRectangle width="30" height="30" as="alternateBounds" />
          </mxGeometry>
        </mxCell>
        <mxCell id="InM_dgTHcNlFLqxI31jz-4" value="Employee ID" style="shape=partialRectangle;overflow=hidden;connectable=0;fillColor=none;top=0;left=0;bottom=0;right=0;align=left;spacingLeft=6;" parent="InM_dgTHcNlFLqxI31jz-2" vertex="1">
          <mxGeometry x="30" width="220" height="30" as="geometry">
            <mxRectangle width="220" height="30" as="alternateBounds" />
          </mxGeometry>
        </mxCell>
        <mxCell id="b5UiUd3cwTcGRK4u3dvN-64" style="shape=partialRectangle;collapsible=0;dropTarget=0;pointerEvents=0;fillColor=none;points=[[0,0.5],[1,0.5]];portConstraint=eastwest;top=0;left=0;right=0;bottom=0;" parent="agrQYRMtIA3MOH0goCUR-33" vertex="1">
          <mxGeometry y="150" width="250" height="30" as="geometry" />
        </mxCell>
        <mxCell id="b5UiUd3cwTcGRK4u3dvN-65" value="" style="shape=partialRectangle;overflow=hidden;connectable=0;fillColor=none;top=0;left=0;bottom=0;right=0;" parent="b5UiUd3cwTcGRK4u3dvN-64" vertex="1">
          <mxGeometry width="30" height="30" as="geometry">
            <mxRectangle width="30" height="30" as="alternateBounds" />
          </mxGeometry>
        </mxCell>
        <mxCell id="b5UiUd3cwTcGRK4u3dvN-66" value="Date" style="shape=partialRectangle;overflow=hidden;connectable=0;fillColor=none;top=0;left=0;bottom=0;right=0;align=left;spacingLeft=6;" parent="b5UiUd3cwTcGRK4u3dvN-64" vertex="1">
          <mxGeometry x="30" width="220" height="30" as="geometry">
            <mxRectangle width="220" height="30" as="alternateBounds" />
          </mxGeometry>
        </mxCell>
        <mxCell id="agrQYRMtIA3MOH0goCUR-46" value="" style="endArrow=ERzeroToMany;html=1;rounded=0;labelBackgroundColor=default;strokeColor=default;strokeWidth=3;align=center;verticalAlign=middle;fontFamily=Helvetica;fontSize=11;fontColor=default;startSize=15;endSize=15;shape=connector;elbow=horizontal;edgeStyle=orthogonalEdgeStyle;endFill=0;startArrow=ERmandOne;startFill=0;" parent="1" source="VAx4gwtXxQH16esh_LAT-102" target="agrQYRMtIA3MOH0goCUR-33" edge="1">
          <mxGeometry width="50" height="50" relative="1" as="geometry">
            <mxPoint y="-190" as="sourcePoint" />
            <mxPoint x="460" y="220" as="targetPoint" />
            <Array as="points">
              <mxPoint x="130" y="70" />
              <mxPoint x="465" y="70" />
            </Array>
          </mxGeometry>
        </mxCell>
        <mxCell id="agrQYRMtIA3MOH0goCUR-60" style="edgeStyle=orthogonalEdgeStyle;rounded=0;orthogonalLoop=1;jettySize=auto;html=1;exitX=0;exitY=0.5;exitDx=0;exitDy=0;entryX=0;entryY=0.5;entryDx=0;entryDy=0;strokeWidth=3;endArrow=ERzeroToMany;endFill=0;startArrow=ERmandOne;startFill=0;endSize=15;startSize=15;" parent="1" source="VAx4gwtXxQH16esh_LAT-165" target="agrQYRMtIA3MOH0goCUR-43" edge="1">
          <mxGeometry relative="1" as="geometry" />
        </mxCell>
        <mxCell id="agrQYRMtIA3MOH0goCUR-61" style="edgeStyle=orthogonalEdgeStyle;rounded=0;orthogonalLoop=1;jettySize=auto;html=1;exitX=0;exitY=0.5;exitDx=0;exitDy=0;entryX=0;entryY=0.5;entryDx=0;entryDy=0;strokeWidth=3;endArrow=ERzeroToMany;endFill=0;startArrow=ERmandOne;startFill=0;endSize=15;startSize=15;" parent="1" source="VAx4gwtXxQH16esh_LAT-169" target="agrQYRMtIA3MOH0goCUR-43" edge="1">
          <mxGeometry relative="1" as="geometry" />
        </mxCell>
        <mxCell id="agrQYRMtIA3MOH0goCUR-62" style="edgeStyle=orthogonalEdgeStyle;rounded=0;orthogonalLoop=1;jettySize=auto;html=1;exitX=0;exitY=0.5;exitDx=0;exitDy=0;entryX=0;entryY=0.5;entryDx=0;entryDy=0;strokeWidth=3;endArrow=ERzeroToMany;endFill=0;startArrow=ERmandOne;startFill=0;endSize=15;startSize=15;" parent="1" source="VAx4gwtXxQH16esh_LAT-161" target="agrQYRMtIA3MOH0goCUR-43" edge="1">
          <mxGeometry relative="1" as="geometry" />
        </mxCell>
        <mxCell id="kqgHbi1kHh895h9zA2bM-30" value="PAYMENT DETAILS" style="shape=table;startSize=30;container=1;collapsible=1;childLayout=tableLayout;fixedRows=1;rowLines=0;fontStyle=1;align=center;resizeLast=1;html=1;rounded=0;shadow=0;" parent="1" vertex="1">
          <mxGeometry x="1340" y="-900" width="200" height="210" as="geometry" />
        </mxCell>
        <mxCell id="kqgHbi1kHh895h9zA2bM-31" value="" style="shape=tableRow;horizontal=0;startSize=0;swimlaneHead=0;swimlaneBody=0;fillColor=none;collapsible=0;dropTarget=0;points=[[0,0.5],[1,0.5]];portConstraint=eastwest;top=0;left=0;right=0;bottom=1;" parent="kqgHbi1kHh895h9zA2bM-30" vertex="1">
          <mxGeometry y="30" width="200" height="30" as="geometry" />
        </mxCell>
        <mxCell id="kqgHbi1kHh895h9zA2bM-32" value="PK" style="shape=partialRectangle;connectable=0;fillColor=none;top=0;left=0;bottom=0;right=0;fontStyle=1;overflow=hidden;whiteSpace=wrap;html=1;" parent="kqgHbi1kHh895h9zA2bM-31" vertex="1">
          <mxGeometry width="30" height="30" as="geometry">
            <mxRectangle width="30" height="30" as="alternateBounds" />
          </mxGeometry>
        </mxCell>
        <mxCell id="kqgHbi1kHh895h9zA2bM-33" value="Payment Details ID" style="shape=partialRectangle;connectable=0;fillColor=none;top=0;left=0;bottom=0;right=0;align=left;spacingLeft=6;fontStyle=5;overflow=hidden;whiteSpace=wrap;html=1;" parent="kqgHbi1kHh895h9zA2bM-31" vertex="1">
          <mxGeometry x="30" width="170" height="30" as="geometry">
            <mxRectangle width="170" height="30" as="alternateBounds" />
          </mxGeometry>
        </mxCell>
        <mxCell id="ITAxaeXI1BbHKEIixUYD-95" style="shape=tableRow;horizontal=0;startSize=0;swimlaneHead=0;swimlaneBody=0;fillColor=none;collapsible=0;dropTarget=0;points=[[0,0.5],[1,0.5]];portConstraint=eastwest;top=0;left=0;right=0;bottom=0;" vertex="1" parent="kqgHbi1kHh895h9zA2bM-30">
          <mxGeometry y="60" width="200" height="30" as="geometry" />
        </mxCell>
        <mxCell id="ITAxaeXI1BbHKEIixUYD-96" value="FK1" style="shape=partialRectangle;connectable=0;fillColor=none;top=0;left=0;bottom=0;right=0;editable=1;overflow=hidden;whiteSpace=wrap;html=1;" vertex="1" parent="ITAxaeXI1BbHKEIixUYD-95">
          <mxGeometry width="30" height="30" as="geometry">
            <mxRectangle width="30" height="30" as="alternateBounds" />
          </mxGeometry>
        </mxCell>
        <mxCell id="ITAxaeXI1BbHKEIixUYD-97" value="BRN ID" style="shape=partialRectangle;connectable=0;fillColor=none;top=0;left=0;bottom=0;right=0;align=left;spacingLeft=6;overflow=hidden;whiteSpace=wrap;html=1;" vertex="1" parent="ITAxaeXI1BbHKEIixUYD-95">
          <mxGeometry x="30" width="170" height="30" as="geometry">
            <mxRectangle width="170" height="30" as="alternateBounds" />
          </mxGeometry>
        </mxCell>
        <mxCell id="kqgHbi1kHh895h9zA2bM-34" value="" style="shape=tableRow;horizontal=0;startSize=0;swimlaneHead=0;swimlaneBody=0;fillColor=none;collapsible=0;dropTarget=0;points=[[0,0.5],[1,0.5]];portConstraint=eastwest;top=0;left=0;right=0;bottom=0;" parent="kqgHbi1kHh895h9zA2bM-30" vertex="1">
          <mxGeometry y="90" width="200" height="30" as="geometry" />
        </mxCell>
        <mxCell id="kqgHbi1kHh895h9zA2bM-35" value="" style="shape=partialRectangle;connectable=0;fillColor=none;top=0;left=0;bottom=0;right=0;editable=1;overflow=hidden;whiteSpace=wrap;html=1;" parent="kqgHbi1kHh895h9zA2bM-34" vertex="1">
          <mxGeometry width="30" height="30" as="geometry">
            <mxRectangle width="30" height="30" as="alternateBounds" />
          </mxGeometry>
        </mxCell>
        <mxCell id="kqgHbi1kHh895h9zA2bM-36" value="Mode of Payment" style="shape=partialRectangle;connectable=0;fillColor=none;top=0;left=0;bottom=0;right=0;align=left;spacingLeft=6;overflow=hidden;whiteSpace=wrap;html=1;" parent="kqgHbi1kHh895h9zA2bM-34" vertex="1">
          <mxGeometry x="30" width="170" height="30" as="geometry">
            <mxRectangle width="170" height="30" as="alternateBounds" />
          </mxGeometry>
        </mxCell>
        <mxCell id="b5UiUd3cwTcGRK4u3dvN-61" value="" style="shape=tableRow;horizontal=0;startSize=0;swimlaneHead=0;swimlaneBody=0;fillColor=none;collapsible=0;dropTarget=0;points=[[0,0.5],[1,0.5]];portConstraint=eastwest;top=0;left=0;right=0;bottom=0;" parent="kqgHbi1kHh895h9zA2bM-30" vertex="1">
          <mxGeometry y="120" width="200" height="30" as="geometry" />
        </mxCell>
        <mxCell id="b5UiUd3cwTcGRK4u3dvN-62" value="" style="shape=partialRectangle;connectable=0;fillColor=none;top=0;left=0;bottom=0;right=0;editable=1;overflow=hidden;whiteSpace=wrap;html=1;" parent="b5UiUd3cwTcGRK4u3dvN-61" vertex="1">
          <mxGeometry width="30" height="30" as="geometry">
            <mxRectangle width="30" height="30" as="alternateBounds" />
          </mxGeometry>
        </mxCell>
        <mxCell id="b5UiUd3cwTcGRK4u3dvN-63" value="Card Number" style="shape=partialRectangle;connectable=0;fillColor=none;top=0;left=0;bottom=0;right=0;align=left;spacingLeft=6;overflow=hidden;whiteSpace=wrap;html=1;" parent="b5UiUd3cwTcGRK4u3dvN-61" vertex="1">
          <mxGeometry x="30" width="170" height="30" as="geometry">
            <mxRectangle width="170" height="30" as="alternateBounds" />
          </mxGeometry>
        </mxCell>
        <mxCell id="kqgHbi1kHh895h9zA2bM-37" value="" style="shape=tableRow;horizontal=0;startSize=0;swimlaneHead=0;swimlaneBody=0;fillColor=none;collapsible=0;dropTarget=0;points=[[0,0.5],[1,0.5]];portConstraint=eastwest;top=0;left=0;right=0;bottom=0;" parent="kqgHbi1kHh895h9zA2bM-30" vertex="1">
          <mxGeometry y="150" width="200" height="30" as="geometry" />
        </mxCell>
        <mxCell id="kqgHbi1kHh895h9zA2bM-38" value="" style="shape=partialRectangle;connectable=0;fillColor=none;top=0;left=0;bottom=0;right=0;editable=1;overflow=hidden;whiteSpace=wrap;html=1;" parent="kqgHbi1kHh895h9zA2bM-37" vertex="1">
          <mxGeometry width="30" height="30" as="geometry">
            <mxRectangle width="30" height="30" as="alternateBounds" />
          </mxGeometry>
        </mxCell>
        <mxCell id="kqgHbi1kHh895h9zA2bM-39" value="CVV" style="shape=partialRectangle;connectable=0;fillColor=none;top=0;left=0;bottom=0;right=0;align=left;spacingLeft=6;overflow=hidden;whiteSpace=wrap;html=1;" parent="kqgHbi1kHh895h9zA2bM-37" vertex="1">
          <mxGeometry x="30" width="170" height="30" as="geometry">
            <mxRectangle width="170" height="30" as="alternateBounds" />
          </mxGeometry>
        </mxCell>
        <mxCell id="kqgHbi1kHh895h9zA2bM-40" value="" style="shape=tableRow;horizontal=0;startSize=0;swimlaneHead=0;swimlaneBody=0;fillColor=none;collapsible=0;dropTarget=0;points=[[0,0.5],[1,0.5]];portConstraint=eastwest;top=0;left=0;right=0;bottom=0;" parent="kqgHbi1kHh895h9zA2bM-30" vertex="1">
          <mxGeometry y="180" width="200" height="30" as="geometry" />
        </mxCell>
        <mxCell id="kqgHbi1kHh895h9zA2bM-41" value="" style="shape=partialRectangle;connectable=0;fillColor=none;top=0;left=0;bottom=0;right=0;editable=1;overflow=hidden;whiteSpace=wrap;html=1;" parent="kqgHbi1kHh895h9zA2bM-40" vertex="1">
          <mxGeometry width="30" height="30" as="geometry">
            <mxRectangle width="30" height="30" as="alternateBounds" />
          </mxGeometry>
        </mxCell>
        <mxCell id="kqgHbi1kHh895h9zA2bM-42" value="Expiration Date" style="shape=partialRectangle;connectable=0;fillColor=none;top=0;left=0;bottom=0;right=0;align=left;spacingLeft=6;overflow=hidden;whiteSpace=wrap;html=1;" parent="kqgHbi1kHh895h9zA2bM-40" vertex="1">
          <mxGeometry x="30" width="170" height="30" as="geometry">
            <mxRectangle width="170" height="30" as="alternateBounds" />
          </mxGeometry>
        </mxCell>
        <mxCell id="kqgHbi1kHh895h9zA2bM-52" style="edgeStyle=orthogonalEdgeStyle;rounded=0;orthogonalLoop=1;jettySize=auto;html=1;endArrow=ERzeroToOne;endFill=0;startArrow=ERmandOne;startFill=0;strokeWidth=3;endSize=15;startSize=15;" parent="1" source="VAx4gwtXxQH16esh_LAT-21" target="kqgHbi1kHh895h9zA2bM-30" edge="1">
          <mxGeometry relative="1" as="geometry">
            <Array as="points">
              <mxPoint x="1190" y="-795" />
              <mxPoint x="1190" y="-795" />
            </Array>
            <mxPoint x="1129" y="-790" as="sourcePoint" />
            <mxPoint x="1339" y="-790" as="targetPoint" />
          </mxGeometry>
        </mxCell>
        <mxCell id="kqgHbi1kHh895h9zA2bM-73" style="edgeStyle=orthogonalEdgeStyle;shape=connector;rounded=0;orthogonalLoop=1;jettySize=auto;html=1;labelBackgroundColor=default;strokeColor=default;strokeWidth=3;align=center;verticalAlign=middle;fontFamily=Helvetica;fontSize=11;fontColor=default;startArrow=ERoneToMany;startFill=0;endArrow=ERmandOne;endFill=0;startSize=15;endSize=15;" parent="1" source="InM_dgTHcNlFLqxI31jz-10" target="VAx4gwtXxQH16esh_LAT-102" edge="1">
          <mxGeometry relative="1" as="geometry">
            <mxPoint x="192.5" y="-289.0999999999999" as="targetPoint" />
            <Array as="points">
              <mxPoint x="125" y="-400" />
            </Array>
            <mxPoint x="250" y="-550" as="sourcePoint" />
          </mxGeometry>
        </mxCell>
        <mxCell id="kqgHbi1kHh895h9zA2bM-69" style="edgeStyle=orthogonalEdgeStyle;shape=connector;rounded=0;orthogonalLoop=1;jettySize=auto;html=1;labelBackgroundColor=default;strokeColor=default;strokeWidth=3;align=center;verticalAlign=middle;fontFamily=Helvetica;fontSize=11;fontColor=default;startArrow=ERmandOne;startFill=0;endArrow=ERoneToMany;endFill=0;startSize=15;endSize=15;" parent="1" source="b5UiUd3cwTcGRK4u3dvN-1" target="InM_dgTHcNlFLqxI31jz-10" edge="1">
          <mxGeometry relative="1" as="geometry">
            <mxPoint x="410" y="-570" as="sourcePoint" />
            <Array as="points">
              <mxPoint x="380" y="-643" />
              <mxPoint x="380" y="-497" />
            </Array>
            <mxPoint x="540" y="-380" as="targetPoint" />
          </mxGeometry>
        </mxCell>
        <mxCell id="InM_dgTHcNlFLqxI31jz-10" value="SERVICE ROOM TYPE" style="shape=table;startSize=30;container=1;collapsible=1;childLayout=tableLayout;fixedRows=1;rowLines=0;fontStyle=1;align=center;resizeLast=1;rounded=1;" parent="1" vertex="1">
          <mxGeometry x="90" y="-560" width="250" height="125.00000000000182" as="geometry" />
        </mxCell>
        <mxCell id="InM_dgTHcNlFLqxI31jz-20" style="shape=partialRectangle;collapsible=0;dropTarget=0;pointerEvents=0;fillColor=none;points=[[0,0.5],[1,0.5]];portConstraint=eastwest;top=0;left=0;right=0;bottom=1;" parent="InM_dgTHcNlFLqxI31jz-10" vertex="1">
          <mxGeometry y="30" width="250" height="30" as="geometry" />
        </mxCell>
        <mxCell id="InM_dgTHcNlFLqxI31jz-21" value="PK" style="shape=partialRectangle;overflow=hidden;connectable=0;fillColor=none;top=0;left=0;bottom=0;right=0;fontStyle=1;" parent="InM_dgTHcNlFLqxI31jz-20" vertex="1">
          <mxGeometry width="30" height="30" as="geometry">
            <mxRectangle width="30" height="30" as="alternateBounds" />
          </mxGeometry>
        </mxCell>
        <mxCell id="InM_dgTHcNlFLqxI31jz-22" value="Room Type" style="shape=partialRectangle;overflow=hidden;connectable=0;fillColor=none;top=0;left=0;bottom=0;right=0;align=left;spacingLeft=6;fontStyle=5;" parent="InM_dgTHcNlFLqxI31jz-20" vertex="1">
          <mxGeometry x="30" width="220" height="30" as="geometry">
            <mxRectangle width="220" height="30" as="alternateBounds" />
          </mxGeometry>
        </mxCell>
        <mxCell id="InM_dgTHcNlFLqxI31jz-11" value="" style="shape=partialRectangle;collapsible=0;dropTarget=0;pointerEvents=0;fillColor=none;points=[[0,0.5],[1,0.5]];portConstraint=eastwest;top=0;left=0;right=0;bottom=1;" parent="InM_dgTHcNlFLqxI31jz-10" vertex="1">
          <mxGeometry y="60" width="250" height="30" as="geometry" />
        </mxCell>
        <mxCell id="InM_dgTHcNlFLqxI31jz-12" value="PK" style="shape=partialRectangle;overflow=hidden;connectable=0;fillColor=none;top=0;left=0;bottom=0;right=0;fontStyle=1;" parent="InM_dgTHcNlFLqxI31jz-11" vertex="1">
          <mxGeometry width="30" height="30" as="geometry">
            <mxRectangle width="30" height="30" as="alternateBounds" />
          </mxGeometry>
        </mxCell>
        <mxCell id="InM_dgTHcNlFLqxI31jz-13" value="Service ID" style="shape=partialRectangle;overflow=hidden;connectable=0;fillColor=none;top=0;left=0;bottom=0;right=0;align=left;spacingLeft=6;fontStyle=5;" parent="InM_dgTHcNlFLqxI31jz-11" vertex="1">
          <mxGeometry x="30" width="220" height="30" as="geometry">
            <mxRectangle width="220" height="30" as="alternateBounds" />
          </mxGeometry>
        </mxCell>
        <mxCell id="InM_dgTHcNlFLqxI31jz-14" value="" style="shape=partialRectangle;collapsible=0;dropTarget=0;pointerEvents=0;fillColor=none;points=[[0,0.5],[1,0.5]];portConstraint=eastwest;top=0;left=0;right=0;bottom=0;" parent="InM_dgTHcNlFLqxI31jz-10" vertex="1">
          <mxGeometry y="90" width="250" height="35" as="geometry" />
        </mxCell>
        <mxCell id="InM_dgTHcNlFLqxI31jz-15" value="" style="shape=partialRectangle;overflow=hidden;connectable=0;fillColor=none;top=0;left=0;bottom=0;right=0;" parent="InM_dgTHcNlFLqxI31jz-14" vertex="1">
          <mxGeometry width="30" height="35" as="geometry">
            <mxRectangle width="30" height="35" as="alternateBounds" />
          </mxGeometry>
        </mxCell>
        <mxCell id="InM_dgTHcNlFLqxI31jz-16" value="Price" style="shape=partialRectangle;overflow=hidden;connectable=0;fillColor=none;top=0;left=0;bottom=0;right=0;align=left;spacingLeft=6;" parent="InM_dgTHcNlFLqxI31jz-14" vertex="1">
          <mxGeometry x="30" width="220" height="35" as="geometry">
            <mxRectangle width="220" height="35" as="alternateBounds" />
          </mxGeometry>
        </mxCell>
        <mxCell id="InM_dgTHcNlFLqxI31jz-53" value="" style="endArrow=ERmandOne;html=1;rounded=0;strokeWidth=3;endSize=15;startSize=15;startArrow=ERoneToMany;startFill=0;endFill=0;" parent="1" source="VAx4gwtXxQH16esh_LAT-54" target="VAx4gwtXxQH16esh_LAT-21" edge="1">
          <mxGeometry width="50" height="50" relative="1" as="geometry">
            <mxPoint x="1005" y="-1080" as="sourcePoint" />
            <mxPoint x="960" y="-1100" as="targetPoint" />
          </mxGeometry>
        </mxCell>
        <mxCell id="b5UiUd3cwTcGRK4u3dvN-1" value="ROOM TYPE" style="shape=table;startSize=30;container=1;collapsible=1;childLayout=tableLayout;fixedRows=1;rowLines=0;fontStyle=1;align=center;resizeLast=1;" parent="1" vertex="1">
          <mxGeometry x="540" y="-690" width="250" height="270.0000000000018" as="geometry" />
        </mxCell>
        <mxCell id="b5UiUd3cwTcGRK4u3dvN-5" value="" style="shape=partialRectangle;collapsible=0;dropTarget=0;pointerEvents=0;fillColor=none;points=[[0,0.5],[1,0.5]];portConstraint=eastwest;top=0;left=0;right=0;bottom=1;" parent="b5UiUd3cwTcGRK4u3dvN-1" vertex="1">
          <mxGeometry y="30" width="250" height="30" as="geometry" />
        </mxCell>
        <mxCell id="b5UiUd3cwTcGRK4u3dvN-6" value="PK" style="shape=partialRectangle;overflow=hidden;connectable=0;fillColor=none;top=0;left=0;bottom=0;right=0;fontStyle=1;" parent="b5UiUd3cwTcGRK4u3dvN-5" vertex="1">
          <mxGeometry width="30" height="30" as="geometry">
            <mxRectangle width="30" height="30" as="alternateBounds" />
          </mxGeometry>
        </mxCell>
        <mxCell id="b5UiUd3cwTcGRK4u3dvN-7" value="Room Type ID" style="shape=partialRectangle;overflow=hidden;connectable=0;fillColor=none;top=0;left=0;bottom=0;right=0;align=left;spacingLeft=6;fontStyle=5;" parent="b5UiUd3cwTcGRK4u3dvN-5" vertex="1">
          <mxGeometry x="30" width="220" height="30" as="geometry">
            <mxRectangle width="220" height="30" as="alternateBounds" />
          </mxGeometry>
        </mxCell>
        <mxCell id="b5UiUd3cwTcGRK4u3dvN-8" value="" style="shape=partialRectangle;collapsible=0;dropTarget=0;pointerEvents=0;fillColor=none;points=[[0,0.5],[1,0.5]];portConstraint=eastwest;top=0;left=0;right=0;bottom=0;" parent="b5UiUd3cwTcGRK4u3dvN-1" vertex="1">
          <mxGeometry y="60" width="250" height="35" as="geometry" />
        </mxCell>
        <mxCell id="b5UiUd3cwTcGRK4u3dvN-9" value="" style="shape=partialRectangle;overflow=hidden;connectable=0;fillColor=none;top=0;left=0;bottom=0;right=0;" parent="b5UiUd3cwTcGRK4u3dvN-8" vertex="1">
          <mxGeometry width="30" height="35" as="geometry">
            <mxRectangle width="30" height="35" as="alternateBounds" />
          </mxGeometry>
        </mxCell>
        <mxCell id="b5UiUd3cwTcGRK4u3dvN-10" value="Room Name" style="shape=partialRectangle;overflow=hidden;connectable=0;fillColor=none;top=0;left=0;bottom=0;right=0;align=left;spacingLeft=6;" parent="b5UiUd3cwTcGRK4u3dvN-8" vertex="1">
          <mxGeometry x="30" width="220" height="35" as="geometry">
            <mxRectangle width="220" height="35" as="alternateBounds" />
          </mxGeometry>
        </mxCell>
        <mxCell id="ITAxaeXI1BbHKEIixUYD-56" style="shape=partialRectangle;collapsible=0;dropTarget=0;pointerEvents=0;fillColor=none;points=[[0,0.5],[1,0.5]];portConstraint=eastwest;top=0;left=0;right=0;bottom=0;" vertex="1" parent="b5UiUd3cwTcGRK4u3dvN-1">
          <mxGeometry y="95" width="250" height="35" as="geometry" />
        </mxCell>
        <mxCell id="ITAxaeXI1BbHKEIixUYD-57" style="shape=partialRectangle;overflow=hidden;connectable=0;fillColor=none;top=0;left=0;bottom=0;right=0;" vertex="1" parent="ITAxaeXI1BbHKEIixUYD-56">
          <mxGeometry width="30" height="35" as="geometry">
            <mxRectangle width="30" height="35" as="alternateBounds" />
          </mxGeometry>
        </mxCell>
        <mxCell id="ITAxaeXI1BbHKEIixUYD-58" value="Description" style="shape=partialRectangle;overflow=hidden;connectable=0;fillColor=none;top=0;left=0;bottom=0;right=0;align=left;spacingLeft=6;" vertex="1" parent="ITAxaeXI1BbHKEIixUYD-56">
          <mxGeometry x="30" width="220" height="35" as="geometry">
            <mxRectangle width="220" height="35" as="alternateBounds" />
          </mxGeometry>
        </mxCell>
        <mxCell id="ITAxaeXI1BbHKEIixUYD-59" style="shape=partialRectangle;collapsible=0;dropTarget=0;pointerEvents=0;fillColor=none;points=[[0,0.5],[1,0.5]];portConstraint=eastwest;top=0;left=0;right=0;bottom=0;" vertex="1" parent="b5UiUd3cwTcGRK4u3dvN-1">
          <mxGeometry y="130" width="250" height="35" as="geometry" />
        </mxCell>
        <mxCell id="ITAxaeXI1BbHKEIixUYD-60" style="shape=partialRectangle;overflow=hidden;connectable=0;fillColor=none;top=0;left=0;bottom=0;right=0;" vertex="1" parent="ITAxaeXI1BbHKEIixUYD-59">
          <mxGeometry width="30" height="35" as="geometry">
            <mxRectangle width="30" height="35" as="alternateBounds" />
          </mxGeometry>
        </mxCell>
        <mxCell id="ITAxaeXI1BbHKEIixUYD-61" value="Price" style="shape=partialRectangle;overflow=hidden;connectable=0;fillColor=none;top=0;left=0;bottom=0;right=0;align=left;spacingLeft=6;" vertex="1" parent="ITAxaeXI1BbHKEIixUYD-59">
          <mxGeometry x="30" width="220" height="35" as="geometry">
            <mxRectangle width="220" height="35" as="alternateBounds" />
          </mxGeometry>
        </mxCell>
        <mxCell id="ITAxaeXI1BbHKEIixUYD-62" style="shape=partialRectangle;collapsible=0;dropTarget=0;pointerEvents=0;fillColor=none;points=[[0,0.5],[1,0.5]];portConstraint=eastwest;top=0;left=0;right=0;bottom=0;" vertex="1" parent="b5UiUd3cwTcGRK4u3dvN-1">
          <mxGeometry y="165" width="250" height="35" as="geometry" />
        </mxCell>
        <mxCell id="ITAxaeXI1BbHKEIixUYD-63" style="shape=partialRectangle;overflow=hidden;connectable=0;fillColor=none;top=0;left=0;bottom=0;right=0;" vertex="1" parent="ITAxaeXI1BbHKEIixUYD-62">
          <mxGeometry width="30" height="35" as="geometry">
            <mxRectangle width="30" height="35" as="alternateBounds" />
          </mxGeometry>
        </mxCell>
        <mxCell id="ITAxaeXI1BbHKEIixUYD-64" value="Max Guests" style="shape=partialRectangle;overflow=hidden;connectable=0;fillColor=none;top=0;left=0;bottom=0;right=0;align=left;spacingLeft=6;" vertex="1" parent="ITAxaeXI1BbHKEIixUYD-62">
          <mxGeometry x="30" width="220" height="35" as="geometry">
            <mxRectangle width="220" height="35" as="alternateBounds" />
          </mxGeometry>
        </mxCell>
        <mxCell id="ITAxaeXI1BbHKEIixUYD-65" style="shape=partialRectangle;collapsible=0;dropTarget=0;pointerEvents=0;fillColor=none;points=[[0,0.5],[1,0.5]];portConstraint=eastwest;top=0;left=0;right=0;bottom=0;" vertex="1" parent="b5UiUd3cwTcGRK4u3dvN-1">
          <mxGeometry y="200" width="250" height="35" as="geometry" />
        </mxCell>
        <mxCell id="ITAxaeXI1BbHKEIixUYD-66" style="shape=partialRectangle;overflow=hidden;connectable=0;fillColor=none;top=0;left=0;bottom=0;right=0;" vertex="1" parent="ITAxaeXI1BbHKEIixUYD-65">
          <mxGeometry width="30" height="35" as="geometry">
            <mxRectangle width="30" height="35" as="alternateBounds" />
          </mxGeometry>
        </mxCell>
        <mxCell id="ITAxaeXI1BbHKEIixUYD-67" value="Beds" style="shape=partialRectangle;overflow=hidden;connectable=0;fillColor=none;top=0;left=0;bottom=0;right=0;align=left;spacingLeft=6;" vertex="1" parent="ITAxaeXI1BbHKEIixUYD-65">
          <mxGeometry x="30" width="220" height="35" as="geometry">
            <mxRectangle width="220" height="35" as="alternateBounds" />
          </mxGeometry>
        </mxCell>
        <mxCell id="ITAxaeXI1BbHKEIixUYD-68" style="shape=partialRectangle;collapsible=0;dropTarget=0;pointerEvents=0;fillColor=none;points=[[0,0.5],[1,0.5]];portConstraint=eastwest;top=0;left=0;right=0;bottom=0;" vertex="1" parent="b5UiUd3cwTcGRK4u3dvN-1">
          <mxGeometry y="235" width="250" height="35" as="geometry" />
        </mxCell>
        <mxCell id="ITAxaeXI1BbHKEIixUYD-69" style="shape=partialRectangle;overflow=hidden;connectable=0;fillColor=none;top=0;left=0;bottom=0;right=0;" vertex="1" parent="ITAxaeXI1BbHKEIixUYD-68">
          <mxGeometry width="30" height="35" as="geometry">
            <mxRectangle width="30" height="35" as="alternateBounds" />
          </mxGeometry>
        </mxCell>
        <mxCell id="ITAxaeXI1BbHKEIixUYD-70" value="Area" style="shape=partialRectangle;overflow=hidden;connectable=0;fillColor=none;top=0;left=0;bottom=0;right=0;align=left;spacingLeft=6;" vertex="1" parent="ITAxaeXI1BbHKEIixUYD-68">
          <mxGeometry x="30" width="220" height="35" as="geometry">
            <mxRectangle width="220" height="35" as="alternateBounds" />
          </mxGeometry>
        </mxCell>
        <mxCell id="b5UiUd3cwTcGRK4u3dvN-11" style="edgeStyle=orthogonalEdgeStyle;rounded=0;orthogonalLoop=1;jettySize=auto;html=1;endSize=15;startSize=15;strokeWidth=3;startArrow=ERoneToMany;startFill=0;endArrow=ERmandOne;endFill=0;" parent="1" source="VAx4gwtXxQH16esh_LAT-77" target="b5UiUd3cwTcGRK4u3dvN-1" edge="1">
          <mxGeometry relative="1" as="geometry">
            <Array as="points">
              <mxPoint x="665" y="-210" />
              <mxPoint x="665" y="-210" />
            </Array>
          </mxGeometry>
        </mxCell>
        <mxCell id="ITAxaeXI1BbHKEIixUYD-9" style="edgeStyle=orthogonalEdgeStyle;rounded=0;orthogonalLoop=1;jettySize=auto;html=1;strokeWidth=3;endSize=15;startSize=15;startArrow=ERmandOne;startFill=0;endArrow=ERmandOne;endFill=0;" edge="1" parent="1" source="ITAxaeXI1BbHKEIixUYD-46" target="8i_SSMUq7YO5LN_3SJa--5">
          <mxGeometry relative="1" as="geometry">
            <mxPoint x="340" y="-1265" as="sourcePoint" />
          </mxGeometry>
        </mxCell>
        <mxCell id="ITAxaeXI1BbHKEIixUYD-22" value="ACCOUNTS" style="shape=table;startSize=30;container=1;collapsible=1;childLayout=tableLayout;fixedRows=1;rowLines=0;fontStyle=1;align=center;resizeLast=1;" vertex="1" parent="1">
          <mxGeometry x="341" y="-1325" width="249" height="120" as="geometry" />
        </mxCell>
        <mxCell id="ITAxaeXI1BbHKEIixUYD-23" value="" style="shape=partialRectangle;collapsible=0;dropTarget=0;pointerEvents=0;fillColor=none;points=[[0,0.5],[1,0.5]];portConstraint=eastwest;top=0;left=0;right=0;bottom=1;" vertex="1" parent="ITAxaeXI1BbHKEIixUYD-22">
          <mxGeometry y="30" width="249" height="30" as="geometry" />
        </mxCell>
        <mxCell id="ITAxaeXI1BbHKEIixUYD-24" value="PK" style="shape=partialRectangle;overflow=hidden;connectable=0;fillColor=none;top=0;left=0;bottom=0;right=0;fontStyle=1;" vertex="1" parent="ITAxaeXI1BbHKEIixUYD-23">
          <mxGeometry width="30" height="30" as="geometry">
            <mxRectangle width="30" height="30" as="alternateBounds" />
          </mxGeometry>
        </mxCell>
        <mxCell id="ITAxaeXI1BbHKEIixUYD-25" value="Employee_ID" style="shape=partialRectangle;overflow=hidden;connectable=0;fillColor=none;top=0;left=0;bottom=0;right=0;align=left;spacingLeft=6;fontStyle=5;" vertex="1" parent="ITAxaeXI1BbHKEIixUYD-23">
          <mxGeometry x="30" width="219" height="30" as="geometry">
            <mxRectangle width="219" height="30" as="alternateBounds" />
          </mxGeometry>
        </mxCell>
        <mxCell id="ITAxaeXI1BbHKEIixUYD-29" value="" style="shape=partialRectangle;collapsible=0;dropTarget=0;pointerEvents=0;fillColor=none;points=[[0,0.5],[1,0.5]];portConstraint=eastwest;top=0;left=0;right=0;bottom=0;" vertex="1" parent="ITAxaeXI1BbHKEIixUYD-22">
          <mxGeometry y="60" width="249" height="30" as="geometry" />
        </mxCell>
        <mxCell id="ITAxaeXI1BbHKEIixUYD-30" value="" style="shape=partialRectangle;overflow=hidden;connectable=0;fillColor=none;top=0;left=0;bottom=0;right=0;" vertex="1" parent="ITAxaeXI1BbHKEIixUYD-29">
          <mxGeometry width="30" height="30" as="geometry">
            <mxRectangle width="30" height="30" as="alternateBounds" />
          </mxGeometry>
        </mxCell>
        <mxCell id="ITAxaeXI1BbHKEIixUYD-31" value="Email" style="shape=partialRectangle;overflow=hidden;connectable=0;fillColor=none;top=0;left=0;bottom=0;right=0;align=left;spacingLeft=6;" vertex="1" parent="ITAxaeXI1BbHKEIixUYD-29">
          <mxGeometry x="30" width="219" height="30" as="geometry">
            <mxRectangle width="219" height="30" as="alternateBounds" />
          </mxGeometry>
        </mxCell>
        <mxCell id="ITAxaeXI1BbHKEIixUYD-32" value="" style="shape=partialRectangle;collapsible=0;dropTarget=0;pointerEvents=0;fillColor=none;points=[[0,0.5],[1,0.5]];portConstraint=eastwest;top=0;left=0;right=0;bottom=0;" vertex="1" parent="ITAxaeXI1BbHKEIixUYD-22">
          <mxGeometry y="90" width="249" height="30" as="geometry" />
        </mxCell>
        <mxCell id="ITAxaeXI1BbHKEIixUYD-33" value="" style="shape=partialRectangle;overflow=hidden;connectable=0;fillColor=none;top=0;left=0;bottom=0;right=0;" vertex="1" parent="ITAxaeXI1BbHKEIixUYD-32">
          <mxGeometry width="30" height="30" as="geometry">
            <mxRectangle width="30" height="30" as="alternateBounds" />
          </mxGeometry>
        </mxCell>
        <mxCell id="ITAxaeXI1BbHKEIixUYD-34" value="Password" style="shape=partialRectangle;overflow=hidden;connectable=0;fillColor=none;top=0;left=0;bottom=0;right=0;align=left;spacingLeft=6;" vertex="1" parent="ITAxaeXI1BbHKEIixUYD-32">
          <mxGeometry x="30" width="219" height="30" as="geometry">
            <mxRectangle width="219" height="30" as="alternateBounds" />
          </mxGeometry>
        </mxCell>
        <mxCell id="ITAxaeXI1BbHKEIixUYD-98" style="edgeStyle=orthogonalEdgeStyle;rounded=0;orthogonalLoop=1;jettySize=auto;html=1;strokeWidth=3;startArrow=ERmandOne;startFill=0;endArrow=ERmandOne;endFill=0;shape=link;entryX=0.998;entryY=0.27;entryDx=0;entryDy=0;entryPerimeter=0;" edge="1" parent="1" target="8i_SSMUq7YO5LN_3SJa--18">
          <mxGeometry relative="1" as="geometry">
            <mxPoint x="330" y="-1262" as="sourcePoint" />
            <mxPoint x="151" y="-1265.0800000000002" as="targetPoint" />
          </mxGeometry>
        </mxCell>
        <mxCell id="ITAxaeXI1BbHKEIixUYD-99" value="" style="endArrow=none;html=1;rounded=0;strokeWidth=3;" edge="1" parent="1">
          <mxGeometry relative="1" as="geometry">
            <mxPoint x="160" y="-1270" as="sourcePoint" />
            <mxPoint x="160" y="-1250" as="targetPoint" />
          </mxGeometry>
        </mxCell>
        <mxCell id="ITAxaeXI1BbHKEIixUYD-100" value="" style="endArrow=none;html=1;rounded=0;strokeWidth=3;" edge="1" parent="1">
          <mxGeometry relative="1" as="geometry">
            <mxPoint x="169.5" y="-1270" as="sourcePoint" />
            <mxPoint x="169.5" y="-1250" as="targetPoint" />
          </mxGeometry>
        </mxCell>
        <mxCell id="ITAxaeXI1BbHKEIixUYD-101" value="" style="endArrow=none;html=1;rounded=0;strokeWidth=3;" edge="1" parent="1">
          <mxGeometry relative="1" as="geometry">
            <mxPoint x="311" y="-1270" as="sourcePoint" />
            <mxPoint x="311" y="-1250" as="targetPoint" />
          </mxGeometry>
        </mxCell>
        <mxCell id="ITAxaeXI1BbHKEIixUYD-102" value="" style="endArrow=none;html=1;rounded=0;strokeWidth=3;" edge="1" parent="1">
          <mxGeometry relative="1" as="geometry">
            <mxPoint x="320.5" y="-1270" as="sourcePoint" />
            <mxPoint x="320.5" y="-1250" as="targetPoint" />
          </mxGeometry>
        </mxCell>
      </root>
    </mxGraphModel>
  </diagram>
</mxfile>
